<svg width="522" height="471" viewBox="0 0 522 471" fill="none" xmlns="http://www.w3.org/2000/svg">
<path d="M2 289.673V314.553C2 318.238 4.98494 321.223 8.67026 321.223H63.5276" stroke="white" stroke-width="3.33513" stroke-miterlimit="10"/>
<path d="M423.75 22.5343H496.845C509.335 22.5343 519.457 32.6564 519.457 45.1465V446.385C519.457 458.875 509.335 468.997 496.845 468.997H234.27C230.585 468.997 227.6 466.012 227.6 462.327V327.899C227.6 324.213 224.615 321.229 220.929 321.229H181.847" stroke="white" stroke-width="3.33513" stroke-miterlimit="10"/>
<path d="M519.457 149.041H433.438C429.753 149.041 426.768 152.026 426.768 155.712V210.5" stroke="white" stroke-width="3.33513" stroke-miterlimit="10"/>
<path d="M291.756 209.5V155.712C291.756 152.026 288.771 149.041 285.086 149.041H229.256C225.571 149.041 222.586 152.026 222.586 155.712V195.289C222.586 198.974 219.601 201.959 215.916 201.959H181.847" stroke="white" stroke-width="3.33513" stroke-miterlimit="10"/>
<path d="M61.332 195.967H2" stroke="white" stroke-width="3.33513" stroke-miterlimit="10"/>
<path d="M291.756 22.5343H28.5587C13.8897 22.5343 2 34.424 2 49.093V226.572" stroke="white" stroke-width="3.33513" stroke-miterlimit="10"/>
<path d="M301.84 12.0565H292.868C292.254 12.0565 291.756 12.5542 291.756 13.1682V33.7848C291.756 34.3988 292.254 34.8965 292.868 34.8965H301.84C302.454 34.8965 302.951 34.3988 302.951 33.7848V13.1682C302.951 12.5542 302.454 12.0565 301.84 12.0565Z" fill="white"/>
<path d="M330.594 12.0565H321.622C321.008 12.0565 320.511 12.5542 320.511 13.1682V33.7848C320.511 34.3988 321.008 34.8965 321.622 34.8965H330.594C331.208 34.8965 331.706 34.3988 331.706 33.7848V13.1682C331.706 12.5542 331.208 12.0565 330.594 12.0565Z" fill="white"/>
<path d="M357.975 12.0565H349.004C348.39 12.0565 347.892 12.5542 347.892 13.1682V33.7848C347.892 34.3988 348.39 34.8965 349.004 34.8965H357.975C358.589 34.8965 359.087 34.3988 359.087 33.7848V13.1682C359.087 12.5542 358.589 12.0565 357.975 12.0565Z" fill="white"/>
<path d="M385.574 12.0565H376.602C375.988 12.0565 375.491 12.5542 375.491 13.1682V33.7848C375.491 34.3988 375.988 34.8965 376.602 34.8965H385.574C386.188 34.8965 386.686 34.3988 386.686 33.7848V13.1682C386.686 12.5542 386.188 12.0565 385.574 12.0565Z" fill="white"/>
<path d="M413.172 12.0565H404.201C403.587 12.0565 403.089 12.5542 403.089 13.1682V33.7848C403.089 34.3988 403.587 34.8965 404.201 34.8965H413.172C413.786 34.8965 414.284 34.3988 414.284 33.7848V13.1682C414.284 12.5542 413.786 12.0565 413.172 12.0565Z" fill="white"/>
<path d="M313.996 -6.10352e-05H310.933C310.319 -6.10352e-05 309.821 0.497668 309.821 1.11165V47.3143C309.821 47.9283 310.319 48.426 310.933 48.426H313.996C314.61 48.426 315.107 47.9283 315.107 47.3143V1.11165C315.107 0.497668 314.61 -6.10352e-05 313.996 -6.10352e-05Z" fill="white"/>
<path d="M341.278 -6.10352e-05H338.215C337.601 -6.10352e-05 337.103 0.497668 337.103 1.11165V47.3143C337.103 47.9283 337.601 48.426 338.215 48.426H341.278C341.891 48.426 342.389 47.9283 342.389 47.3143V1.11165C342.389 0.497668 341.891 -6.10352e-05 341.278 -6.10352e-05Z" fill="white"/>
<path d="M368.77 -6.10352e-05H365.707C365.093 -6.10352e-05 364.596 0.497668 364.596 1.11165V47.3143C364.596 47.9283 365.093 48.426 365.707 48.426H368.77C369.384 48.426 369.882 47.9283 369.882 47.3143V1.11165C369.882 0.497668 369.384 -6.10352e-05 368.77 -6.10352e-05Z" fill="white"/>
<path d="M396.474 -6.10352e-05H393.412C392.798 -6.10352e-05 392.3 0.497668 392.3 1.11165V47.3143C392.3 47.9283 392.798 48.426 393.412 48.426H396.474C397.088 48.426 397.586 47.9283 397.586 47.3143V1.11165C397.586 0.497668 397.088 -6.10352e-05 396.474 -6.10352e-05Z" fill="white"/>
<path d="M423.961 -6.10352e-05H420.898C420.284 -6.10352e-05 419.786 0.497668 419.786 1.11165V47.3143C419.786 47.9283 420.284 48.426 420.898 48.426H423.961C424.575 48.426 425.072 47.9283 425.072 47.3143V1.11165C425.072 0.497668 424.575 -6.10352e-05 423.961 -6.10352e-05Z" fill="white"/>
</svg>
