<svg width="375" height="137" viewBox="0 0 375 137" fill="none" xmlns="http://www.w3.org/2000/svg">
<path d="M9.01597 71.1049C13.9953 71.1049 18.0319 67.0683 18.0319 62.0889C18.0319 57.1096 13.9953 53.073 9.01597 53.073C4.03659 53.073 0 57.1096 0 62.0889C0 67.0683 4.03659 71.1049 9.01597 71.1049Z" fill="white"/>
<path d="M9.56675 135.19C14.5461 135.19 18.5827 131.153 18.5827 126.174C18.5827 121.194 14.5461 117.158 9.56675 117.158C4.58737 117.158 0.550781 121.194 0.550781 126.174C0.550781 131.153 4.58737 135.19 9.56675 135.19Z" fill="white"/>
<path d="M57.5418 110.248C62.5212 110.248 66.5578 106.212 66.5578 101.232C66.5578 96.2529 62.5212 92.2163 57.5418 92.2163C52.5625 92.2163 48.5259 96.2529 48.5259 101.232C48.5259 106.212 52.5625 110.248 57.5418 110.248Z" fill="white"/>
<path d="M259.601 52.9563C267.536 52.9563 273.97 46.5232 273.97 38.5875C273.97 30.6518 267.536 24.2186 259.601 24.2186C251.665 24.2186 245.232 30.6518 245.232 38.5875C245.232 46.5232 251.665 52.9563 259.601 52.9563Z" fill="white"/>
<path d="M263.742 59.1152H188.924C187.285 59.1152 185.956 60.4442 185.956 62.0835V62.089C185.956 63.7284 187.285 65.0573 188.924 65.0573H263.742C265.382 65.0573 266.711 63.7284 266.711 62.089V62.0835C266.711 60.4442 265.382 59.1152 263.742 59.1152Z" fill="white"/>
<path d="M97.4749 59.1152H16.4424V65.0573H97.4749V59.1152Z" fill="white"/>
<path d="M186.083 54.7073H74.8232C73.2883 54.7073 72.0439 55.9516 72.0439 57.4865V65.2463C72.0439 66.7812 73.2883 68.0256 74.8232 68.0256H186.083C187.618 68.0256 188.862 66.7812 188.862 65.2463V57.4865C188.862 55.9516 187.618 54.7073 186.083 54.7073Z" fill="white"/>
<path d="M68.4482 130.198H188.374V134.539C188.374 135.818 187.334 136.857 186.056 136.857H72.1113C70.088 136.857 68.4482 135.217 68.4482 133.194V130.198Z" fill="white"/>
<path d="M142.755 122.633C142.744 123.439 142.093 124.089 141.287 124.1C135.006 124.156 123.989 124.256 118.559 124.306C84.2956 124.606 50.0272 124.862 15.7643 125.079C14.9416 125.079 14.269 124.417 14.269 123.594C14.269 122.777 14.925 122.116 15.7421 122.11C48.5597 121.955 81.9611 121.282 115.929 120.042C124.401 119.731 132.838 119.387 141.232 119.014C142.082 118.975 142.788 119.659 142.777 120.515L142.749 122.644L142.755 122.633Z" fill="white"/>
<path d="M68.4528 130.421L14.2915 129.268L14.2283 132.236L68.3896 133.389L68.4528 130.421Z" fill="white"/>
<path d="M83.284 115.807H88.2811C89.9987 115.807 91.3939 117.202 91.3939 118.92V122.043H80.1768V118.92C80.1768 117.202 81.5719 115.807 83.2895 115.807H83.284Z" fill="white"/>
<path d="M110.454 115.101H115.452C117.169 115.101 118.564 116.496 118.564 118.214V121.338H107.347V118.214C107.347 116.496 108.742 115.101 110.46 115.101H110.454Z" fill="white"/>
<path d="M374.729 97.6193C374.729 103.489 369.971 108.247 364.102 108.247C358.799 108.247 354.402 104.362 353.601 99.2813C350.005 99.298 346.264 99.5259 342.401 100.032C313.102 103.839 292.074 121.299 280.507 133.166C280.479 133.105 280.456 133.038 280.429 132.977V133.166H186.795V128.23H278.7C285.237 121.204 297.26 110.12 315.453 102.261C331.184 95.4681 345.308 93.7728 354.346 93.4003C355.975 89.6261 359.733 86.9913 364.102 86.9913C369.971 86.9913 374.729 91.7494 374.729 97.6193Z" fill="white"/>
<path d="M188.374 130.198H68.4482V129.498C68.4482 128.191 69.4933 127.118 70.7995 127.085L185.995 124.156C187.301 124.122 188.374 125.173 188.374 126.474V130.192V130.198Z" fill="white"/>
<path d="M183.793 119.57H169.641V124.506H183.793V119.57Z" fill="white"/>
<path d="M262.786 50.7218H255.71V59.7211H262.786V50.7218Z" fill="white"/>
<path d="M271.357 34.085H282.313C284.198 34.085 285.732 35.6192 285.732 37.5035V41.161H271.357V34.085Z" fill="white"/>
<path d="M285.731 41.1611V73.1061C285.731 75.7352 283.602 77.8642 280.973 77.8642H278.672V77.7975L63.7174 102.633L63.0337 96.7355L278.672 71.822V41.1611H285.731Z" fill="white"/>
<path d="M249.401 0H269.084C271.78 0 273.964 2.18451 273.964 4.88041V12.4845H244.515V4.88041C244.515 2.18451 246.7 0 249.396 0H249.401Z" fill="white"/>
<path d="M244.526 12.5123H273.975C273.975 19.4049 268.378 25.0023 261.485 25.0023H257.011C250.118 25.0023 244.521 19.4049 244.521 12.5123H244.526Z" fill="white"/>
<path d="M188.863 116.819C188.863 118.336 187.629 119.57 186.112 119.57H160.375C158.858 119.57 157.624 118.336 157.624 116.819V115.979L131.276 106.041H64.9185V101.227H132.155L132.483 101.349L165.967 113.984L165.934 114.067H186.112C187.629 114.067 188.863 115.301 188.863 116.819Z" fill="white"/>
<path d="M132.482 101.227V101.349L132.154 101.227H132.482Z" fill="white"/>
</svg>
