<svg width="152" height="44" viewBox="0 0 152 44" fill="none" xmlns="http://www.w3.org/2000/svg">
<path d="M53.8789 1.5H98.8701C101.168 1.50022 103.043 3.30072 103.166 5.5752L103.173 5.79688V37.8594C103.173 38.0108 103.165 38.163 103.148 38.3154L103.147 38.3174C103.047 39.2603 102.643 40.1169 102.035 40.7773L101.911 40.9062L101.908 40.9092C101.135 41.6861 100.058 42.1679 98.8701 42.168H53.8789C51.7221 42.168 49.9366 40.5856 49.6211 38.5215L49.5957 38.3203L49.5947 38.3154L49.5762 38.0869C49.5721 38.011 49.5703 37.9351 49.5703 37.8594V5.79688C49.5743 4.68638 49.9976 3.67155 50.6895 2.91016L50.832 2.76172C51.6123 1.98153 52.6912 1.5 53.8789 1.5ZM143.638 6.86426V37.4102H106.173V6.86426H143.638ZM46.5645 6.86426V37.4102H8.19238V6.86426H46.5645ZM148.233 13.7236C149.245 13.7236 150.069 14.5471 150.069 15.5586V28.7207C150.069 29.7322 149.245 30.5557 148.233 30.5557H146.638V13.7236H148.233ZM3.33496 13.7178H5.19238V30.5508H3.33496C2.32373 30.5507 1.50023 29.727 1.5 28.7158V15.5527C1.50001 14.5413 2.32359 13.7179 3.33496 13.7178Z" stroke="white" stroke-width="3"/>
</svg>
