<svg width="171" height="194" viewBox="0 0 171 194" fill="none" xmlns="http://www.w3.org/2000/svg">
<path d="M85.3226 192.026C131.34 192.026 168.645 154.721 168.645 108.703C168.645 62.6852 131.34 25.3804 85.3226 25.3804C39.3048 25.3804 2 62.6852 2 108.703C2 154.721 39.3048 192.026 85.3226 192.026Z" stroke="white" stroke-width="3.33513" stroke-miterlimit="10"/>
<path d="M85.3234 125.968C94.8586 125.968 102.588 118.238 102.588 108.703C102.588 99.168 94.8586 91.4382 85.3234 91.4382C75.7883 91.4382 68.0586 99.168 68.0586 108.703C68.0586 118.238 75.7883 125.968 85.3234 125.968Z" fill="white" stroke="white" stroke-width="3.33513" stroke-miterlimit="10"/>
<path d="M49.5039 0C49.5039 0.205666 49.515 0.411325 49.5373 0.616991H49.5039V0Z" fill="#80B400"/>
<path d="M106.106 0V0.616991H106.072C106.094 0.411325 106.106 0.205666 106.106 0Z" fill="#80B400"/>
</svg>
