<svg width="135" height="159" viewBox="0 0 135 159" fill="none" xmlns="http://www.w3.org/2000/svg">
<path d="M127.482 2V97.557C127.482 130.241 100.501 156.744 67.2215 156.744C33.9424 156.744 6.9668 130.241 6.9668 97.557V2H47.2996V99.8472C47.2996 110.653 56.2211 119.413 67.2215 119.413C78.2218 119.413 87.1433 110.653 87.1433 99.8472V2H127.482Z" stroke="white" stroke-width="3.33513" stroke-miterlimit="10"/>
<path d="M85.2297 27.0558L128.923 35.0513C131.097 35.4492 133.182 34.0092 133.58 31.8349C133.978 29.6607 132.538 27.5756 130.363 27.1777L86.6706 19.1823C84.4963 18.7844 82.4113 20.2244 82.0134 22.3986C81.6155 24.5729 83.0555 26.658 85.2297 27.0558Z" fill="white"/>
<path d="M85.2332 43.839L128.926 51.8345C131.1 52.2324 133.185 50.7924 133.583 48.6181C133.981 46.4439 132.541 44.3588 130.367 43.9609L86.674 35.9655C84.4998 35.5676 82.4147 37.0076 82.0168 39.1818C81.6189 41.3561 83.0589 43.4412 85.2332 43.839Z" fill="white"/>
<path d="M85.2341 58.0846L128.927 66.0801C131.101 66.478 133.186 65.038 133.584 62.8637C133.982 60.6895 132.542 58.6044 130.368 58.2066L86.675 50.2111C84.5007 49.8132 82.4156 51.2532 82.0178 53.4274C81.6199 55.6017 83.0599 57.6868 85.2341 58.0846Z" fill="white"/>
<path d="M85.2385 74.9977L128.931 82.9932C131.106 83.3911 133.191 81.9511 133.589 79.7768C133.986 77.6026 132.546 75.5175 130.372 75.1196L86.6793 67.1241C84.5051 66.7263 82.42 68.1663 82.0222 70.3405C81.6243 72.5148 83.0643 74.5999 85.2385 74.9977Z" fill="white"/>
<path d="M85.2351 90.5715L128.928 98.5669C131.102 98.9648 133.187 97.5248 133.585 95.3506C133.983 93.1763 132.543 91.0913 130.369 90.6934L86.6759 82.6979C84.5017 82.3 82.4166 83.74 82.0188 85.9143C81.6209 88.0885 83.0609 90.1736 85.2351 90.5715Z" fill="white"/>
<path d="M6.18914 103.899L82.3079 103.899C84.5182 103.899 86.3101 102.107 86.3101 99.8971C86.3101 97.6868 84.5182 95.895 82.3079 95.895L6.18914 95.895C3.97881 95.895 2.18698 97.6868 2.18698 99.8971C2.18698 102.107 3.97881 103.899 6.18914 103.899Z" fill="white"/>
<path d="M3.93679 19.0575L47.6296 27.053C49.8038 27.4509 51.8889 26.0109 52.2868 23.8366C52.6847 21.6624 51.2447 19.5773 49.0704 19.1795L5.3776 11.184C3.20338 10.7861 1.11828 12.2261 0.720414 14.4003C0.322546 16.5746 1.76256 18.6597 3.93679 19.0575Z" fill="white"/>
<path d="M3.94021 35.8406L47.633 43.8361C49.8073 44.234 51.8924 42.794 52.2902 40.6197C52.6881 38.4455 51.2481 36.3604 49.0738 35.9625L5.38102 27.967C3.20679 27.5692 1.1217 29.0092 0.723832 31.1834C0.325964 33.3577 1.76598 35.4428 3.94021 35.8406Z" fill="white"/>
<path d="M3.9407 50.0918L47.6335 58.0873C49.8078 58.4852 51.8928 57.0452 52.2907 54.8709C52.6886 52.6967 51.2486 50.6116 49.0743 50.2138L5.38151 42.2183C3.20728 41.8204 1.12219 43.2604 0.72432 45.4347C0.326452 47.6089 1.76647 49.694 3.9407 50.0918Z" fill="white"/>
<path d="M3.93972 67.0048L47.6325 75.0003C49.8068 75.3982 51.8919 73.9581 52.2897 71.7839C52.6876 69.6097 51.2476 67.5246 49.0734 67.1267L5.38053 59.1312C3.20631 58.7334 1.12121 60.1734 0.723344 62.3476C0.325475 64.5218 1.76549 66.6069 3.93972 67.0048Z" fill="white"/>
<path d="M3.94216 82.5785L47.635 90.574C49.8092 90.9719 51.8943 89.5319 52.2922 87.3576C52.6901 85.1834 51.25 83.0983 49.0758 82.7004L5.38297 74.705C3.20875 74.3071 1.12365 75.7471 0.725785 77.9213C0.327917 80.0956 1.76794 82.1807 3.94216 82.5785Z" fill="white"/>
</svg>
