<svg width="34" height="107" viewBox="0 0 34 107" fill="none" xmlns="http://www.w3.org/2000/svg">
<path d="M9.86579 13.8121H1.23145V18.5217H9.86579V13.8121Z" stroke="white" stroke-width="1.56988" stroke-miterlimit="10"/>
<path d="M27.9194 14.597V17.7368C27.9194 18.1685 27.5662 18.5217 27.1345 18.5217H14.5754V14.2045C14.5754 14.0711 14.5754 13.9455 14.5833 13.8121H27.1345C27.5662 13.8121 27.9194 14.1653 27.9194 14.597Z" stroke="white" stroke-width="1.56988" stroke-miterlimit="10"/>
<path d="M29.293 4.58902C27.2365 2.52463 24.3871 1.25302 21.2474 1.25302C14.96 1.25302 9.86572 6.34729 9.86572 12.6347V50.3118C9.86572 55.6494 13.5392 60.1314 18.5001 61.3559C19.3792 61.5757 20.2976 61.6935 21.2474 61.6935C22.1971 61.6935 23.1155 61.5757 23.9947 61.3559C28.9555 60.1314 32.629 55.6494 32.629 50.3118V12.6347C32.629 9.4949 31.3574 6.64556 29.293 4.58902ZM27.9194 49.5269C27.9194 52.2271 26.3102 54.5583 23.9947 55.6023C23.1548 55.9869 22.2285 56.1989 21.2474 56.1989C20.2662 56.1989 19.34 55.9869 18.5001 55.6023C16.1845 54.5583 14.5754 52.2271 14.5754 49.5269V14.2045C14.5754 14.0711 14.5754 13.9455 14.5832 13.8121C14.7873 10.3112 17.6994 7.53255 21.2474 7.53255C23.0841 7.53255 24.7561 8.27823 25.9649 9.48704C27.1737 10.6959 27.9194 12.3678 27.9194 14.2045V49.5269Z" stroke="white" stroke-width="1.56988" stroke-miterlimit="10"/>
<path d="M27.9194 14.2046V49.5269C27.9194 52.2271 26.3103 54.5584 23.9947 55.6023C23.1548 55.9869 22.2286 56.1989 21.2474 56.1989C20.2663 56.1989 19.34 55.9869 18.5001 55.6023C16.1846 54.5584 14.5754 52.2271 14.5754 49.5269V14.2046C14.5754 14.0711 14.5754 13.9455 14.5833 13.8121C14.7874 10.3113 17.6995 7.53256 21.2474 7.53256C23.0842 7.53256 24.7561 8.27825 25.9649 9.48706C27.1737 10.6959 27.9194 12.3678 27.9194 14.2046Z" stroke="white" stroke-width="1.56988" stroke-miterlimit="10"/>
<path d="M27.9194 14.2046V49.5269C27.9194 52.2271 26.3103 54.5584 23.9947 55.6023C23.1548 55.9869 22.2286 56.1989 21.2474 56.1989C20.2663 56.1989 19.34 55.9869 18.5001 55.6023C16.1846 54.5584 14.5754 52.2271 14.5754 49.5269V14.2046C14.5754 14.0711 14.5754 13.9455 14.5833 13.8121C14.7874 10.3113 17.6995 7.53256 21.2474 7.53256C23.0842 7.53256 24.7561 8.27825 25.9649 9.48706C27.1737 10.6959 27.9194 12.3678 27.9194 14.2046Z" stroke="white" stroke-width="1.56988" stroke-miterlimit="10"/>
<path d="M23.9948 51.4892V55.6023C23.1549 55.9869 22.2287 56.1989 21.2475 56.1989C20.2664 56.1989 19.3401 55.9869 18.5002 55.6023V51.4892C18.5002 50.6258 19.2067 49.9193 20.0701 49.9193H22.4249C23.2884 49.9193 23.9948 50.6258 23.9948 51.4892Z" stroke="white" stroke-width="1.56988" stroke-miterlimit="10"/>
<path d="M23.9948 61.3559V102.903C23.9948 104.418 22.7625 105.65 21.2475 105.65C19.7326 105.65 18.5002 104.418 18.5002 102.903V61.3559C19.3794 61.5757 20.2978 61.6934 21.2475 61.6934C22.1973 61.6934 23.1157 61.5757 23.9948 61.3559Z" stroke="white" stroke-width="1.56988" stroke-miterlimit="10"/>
</svg>
