<svg width="34" height="107" viewBox="0 0 34 107" fill="none" xmlns="http://www.w3.org/2000/svg">
<path d="M9.63435 13.5591H1V18.2687H9.63435V13.5591Z" stroke="white" stroke-width="1.56988" stroke-miterlimit="10"/>
<path d="M27.688 14.344V17.4838C27.688 17.9155 27.3348 18.2687 26.903 18.2687H14.344V13.9516C14.344 13.8181 14.344 13.6925 14.3519 13.5591H26.903C27.3348 13.5591 27.688 13.9123 27.688 14.344Z" stroke="white" stroke-width="1.56988" stroke-miterlimit="10"/>
<path d="M29.0616 4.336C27.005 2.2716 24.1557 1 21.0159 1C14.7285 1 9.63428 6.09427 9.63428 12.3816V50.0588C9.63428 55.3964 13.3078 59.8784 18.2686 61.1029C19.1478 61.3227 20.0661 61.4404 21.0159 61.4404C21.9657 61.4404 22.8841 61.3227 23.7632 61.1029C28.724 59.8784 32.3976 55.3964 32.3976 50.0588V12.3816C32.3976 9.24188 31.126 6.39254 29.0616 4.336ZM27.6879 49.2739C27.6879 51.9741 26.0788 54.3053 23.7632 55.3493C22.9233 55.7339 21.9971 55.9459 21.0159 55.9459C20.0347 55.9459 19.1085 55.7339 18.2686 55.3493C15.9531 54.3053 14.3439 51.9741 14.3439 49.2739V13.9515C14.3439 13.8181 14.3439 13.6925 14.3518 13.5591C14.5559 10.0582 17.468 7.27953 21.0159 7.27953C22.8527 7.27953 24.5246 8.02521 25.7334 9.23402C26.9422 10.4428 27.6879 12.1148 27.6879 13.9515V49.2739Z" stroke="white" stroke-width="1.56988" stroke-miterlimit="10"/>
<path d="M27.688 13.9516V49.2739C27.688 51.9741 26.0789 54.3054 23.7633 55.3494C22.9234 55.734 21.9972 55.9459 21.016 55.9459C20.0348 55.9459 19.1086 55.734 18.2687 55.3494C15.9531 54.3054 14.344 51.9741 14.344 49.2739V13.9516C14.344 13.8182 14.344 13.6926 14.3519 13.5591C14.5559 10.0583 17.4681 7.2796 21.016 7.2796C22.8528 7.2796 24.5247 8.02529 25.7335 9.2341C26.9423 10.4429 27.688 12.1148 27.688 13.9516Z" stroke="white" stroke-width="1.56988" stroke-miterlimit="10"/>
<path d="M27.688 13.9516V49.2739C27.688 51.9741 26.0789 54.3054 23.7633 55.3494C22.9234 55.734 21.9972 55.9459 21.016 55.9459C20.0348 55.9459 19.1086 55.734 18.2687 55.3494C15.9531 54.3054 14.344 51.9741 14.344 49.2739V13.9516C14.344 13.8182 14.344 13.6926 14.3519 13.5591C14.5559 10.0583 17.4681 7.2796 21.016 7.2796C22.8528 7.2796 24.5247 8.02529 25.7335 9.2341C26.9423 10.4429 27.688 12.1148 27.688 13.9516Z" stroke="white" stroke-width="1.56988" stroke-miterlimit="10"/>
<path d="M23.7634 51.2363V55.3493C22.9235 55.734 21.9973 55.9459 21.0161 55.9459C20.0349 55.9459 19.1087 55.734 18.2688 55.3493V51.2363C18.2688 50.3728 18.9752 49.6664 19.8387 49.6664H22.1935C23.0569 49.6664 23.7634 50.3728 23.7634 51.2363Z" stroke="white" stroke-width="1.56988" stroke-miterlimit="10"/>
<path d="M23.7634 61.103V102.65C23.7634 104.165 22.531 105.397 21.0161 105.397C19.5012 105.397 18.2688 104.165 18.2688 102.65V61.103C19.1479 61.3227 20.0663 61.4405 21.0161 61.4405C21.9659 61.4405 22.8843 61.3227 23.7634 61.103Z" stroke="white" stroke-width="1.56988" stroke-miterlimit="10"/>
</svg>
