<svg width="505" height="112" viewBox="0 0 505 112" fill="none" xmlns="http://www.w3.org/2000/svg">
<path d="M56.8393 107.397C85.0175 107.397 107.86 84.5541 107.86 56.3759C107.86 28.1977 85.0175 5.3548 56.8393 5.3548C28.6611 5.3548 5.81812 28.1977 5.81812 56.3759C5.81812 84.5541 28.6611 107.397 56.8393 107.397Z" stroke="white" stroke-width="1.56988" stroke-miterlimit="10"/>
<path d="M56.839 61.7763C59.956 61.7763 62.4828 59.2496 62.4828 56.1326C62.4828 53.0157 59.956 50.4889 56.839 50.4889C53.7221 50.4889 51.1953 53.0157 51.1953 56.1326C51.1953 59.2496 53.7221 61.7763 56.839 61.7763Z" stroke="white" stroke-width="1.56988" stroke-miterlimit="10"/>
<path d="M60.3398 70.2458V101.51" stroke="white" stroke-width="1.56988" stroke-miterlimit="10"/>
<path d="M52.8518 70.2458V101.29" stroke="white" stroke-width="1.56988" stroke-miterlimit="10"/>
<path d="M67.1221 65.8267L94.2889 81.5726" stroke="white" stroke-width="1.56988" stroke-miterlimit="10"/>
<path d="M70.5364 59.7669L98.2291 74.3982" stroke="white" stroke-width="1.56988" stroke-miterlimit="10"/>
<path d="M71.2898 53.6286L98.229 39.0444" stroke="white" stroke-width="1.56988" stroke-miterlimit="10"/>
<path d="M67.8755 47.1294L94.2888 31.4698" stroke="white" stroke-width="1.56988" stroke-miterlimit="10"/>
<path d="M61.4233 42.6159L61.7373 11.5087" stroke="white" stroke-width="1.56988" stroke-miterlimit="10"/>
<path d="M53.6995 11.5087V41.8545" stroke="white" stroke-width="1.56988" stroke-miterlimit="10"/>
<path d="M45.7952 47.1294L19.1936 31.4698" stroke="white" stroke-width="1.56988" stroke-miterlimit="10"/>
<path d="M42.9378 53.1655L15.6062 37.9926" stroke="white" stroke-width="1.56988" stroke-miterlimit="10"/>
<path d="M42.9379 58.9427L15.0254 73.4091" stroke="white" stroke-width="1.56988" stroke-miterlimit="10"/>
<path d="M46.0935 65.3243L18.8325 80.7405" stroke="white" stroke-width="1.56988" stroke-miterlimit="10"/>
<path d="M56.8392 11.2418C31.9095 11.2418 11.7051 31.4462 11.7051 56.3759C11.7051 81.3056 31.9095 101.51 56.8392 101.51C81.7689 101.51 101.973 81.3056 101.973 56.3759C101.973 31.4462 81.7689 11.2418 56.8392 11.2418ZM56.8392 70.2458C48.9976 70.2458 42.6474 63.8878 42.6474 56.0541C42.6474 49.4998 47.0902 43.9817 53.1264 42.349C54.3117 42.0272 55.5597 41.8545 56.8392 41.8545C64.6807 41.8545 71.0309 48.2125 71.0309 56.0462C71.0309 63.8799 64.6729 70.238 56.8392 70.238V70.2458Z" stroke="white" stroke-width="1.56988" stroke-miterlimit="10"/>
<path d="M188.709 107.397C216.887 107.397 239.73 84.5541 239.73 56.3759C239.73 28.1977 216.887 5.3548 188.709 5.3548C160.531 5.3548 137.688 28.1977 137.688 56.3759C137.688 84.5541 160.531 107.397 188.709 107.397Z" stroke="white" stroke-width="1.56988" stroke-miterlimit="10"/>
<path d="M188.466 62.0197C191.583 62.0197 194.109 59.4929 194.109 56.376C194.109 53.259 191.583 50.7322 188.466 50.7322C185.349 50.7322 182.822 53.259 182.822 56.376C182.822 59.4929 185.349 62.0197 188.466 62.0197Z" stroke="white" stroke-width="1.56988" stroke-miterlimit="10"/>
<path d="M202.571 52.8673H233.843" stroke="white" stroke-width="1.56988" stroke-miterlimit="10"/>
<path d="M202.571 60.3635H233.615" stroke="white" stroke-width="1.56988" stroke-miterlimit="10"/>
<path d="M198.152 46.0932L213.906 18.9265" stroke="white" stroke-width="1.56988" stroke-miterlimit="10"/>
<path d="M192.092 42.6788L206.723 14.9861" stroke="white" stroke-width="1.56988" stroke-miterlimit="10"/>
<path d="M185.962 41.9253L171.377 14.9861" stroke="white" stroke-width="1.56988" stroke-miterlimit="10"/>
<path d="M179.463 45.3318L163.795 18.9265" stroke="white" stroke-width="1.56988" stroke-miterlimit="10"/>
<path d="M174.949 51.7919L143.834 51.4701" stroke="white" stroke-width="1.56988" stroke-miterlimit="10"/>
<path d="M143.834 59.5157H174.188" stroke="white" stroke-width="1.56988" stroke-miterlimit="10"/>
<path d="M179.463 67.4201L163.795 94.0217" stroke="white" stroke-width="1.56988" stroke-miterlimit="10"/>
<path d="M185.491 70.2772L170.318 97.6089" stroke="white" stroke-width="1.56988" stroke-miterlimit="10"/>
<path d="M191.268 70.2772L205.742 98.1897" stroke="white" stroke-width="1.56988" stroke-miterlimit="10"/>
<path d="M197.657 67.1139L213.066 94.3749" stroke="white" stroke-width="1.56988" stroke-miterlimit="10"/>
<path d="M143.575 56.3759C143.575 81.3056 163.779 101.51 188.709 101.51C213.639 101.51 233.843 81.3056 233.843 56.3759C233.843 31.4462 213.639 11.2418 188.709 11.2418C163.779 11.2418 143.575 31.4462 143.575 56.3759ZM202.579 56.3759C202.579 64.2175 196.221 70.5676 188.387 70.5676C181.833 70.5676 176.315 66.1249 174.682 60.0887C174.36 58.9034 174.188 57.6554 174.188 56.3759C174.188 48.5344 180.546 42.1842 188.379 42.1842C196.213 42.1842 202.571 48.5422 202.571 56.3759H202.579Z" stroke="white" stroke-width="1.56988" stroke-miterlimit="10"/>
<path d="M317.44 107.397C345.618 107.397 368.461 84.5541 368.461 56.3759C368.461 28.1977 345.618 5.3548 317.44 5.3548C289.261 5.3548 266.418 28.1977 266.418 56.3759C266.418 84.5541 289.261 107.397 317.44 107.397Z" stroke="white" stroke-width="1.56988" stroke-miterlimit="10"/>
<path d="M317.44 61.7763C320.557 61.7763 323.083 59.2496 323.083 56.1326C323.083 53.0157 320.557 50.4889 317.44 50.4889C314.323 50.4889 311.796 53.0157 311.796 56.1326C311.796 59.2496 314.323 61.7763 317.44 61.7763Z" stroke="white" stroke-width="1.56988" stroke-miterlimit="10"/>
<path d="M320.94 70.2458V101.51" stroke="white" stroke-width="1.56988" stroke-miterlimit="10"/>
<path d="M313.452 70.2458V101.29" stroke="white" stroke-width="1.56988" stroke-miterlimit="10"/>
<path d="M327.722 65.8267L354.889 81.5726" stroke="white" stroke-width="1.56988" stroke-miterlimit="10"/>
<path d="M331.137 59.7669L358.829 74.3982" stroke="white" stroke-width="1.56988" stroke-miterlimit="10"/>
<path d="M331.89 53.6286L358.829 39.0444" stroke="white" stroke-width="1.56988" stroke-miterlimit="10"/>
<path d="M328.476 47.1294L354.889 31.4698" stroke="white" stroke-width="1.56988" stroke-miterlimit="10"/>
<path d="M322.023 42.6159L322.337 11.5087" stroke="white" stroke-width="1.56988" stroke-miterlimit="10"/>
<path d="M314.3 11.5087V41.8545" stroke="white" stroke-width="1.56988" stroke-miterlimit="10"/>
<path d="M306.395 47.1294L279.794 31.4698" stroke="white" stroke-width="1.56988" stroke-miterlimit="10"/>
<path d="M303.538 53.1655L276.207 37.9926" stroke="white" stroke-width="1.56988" stroke-miterlimit="10"/>
<path d="M303.538 58.9427L275.626 73.4091" stroke="white" stroke-width="1.56988" stroke-miterlimit="10"/>
<path d="M306.694 65.3243L279.433 80.7405" stroke="white" stroke-width="1.56988" stroke-miterlimit="10"/>
<path d="M317.44 11.2418C292.51 11.2418 272.305 31.4462 272.305 56.3759C272.305 81.3056 292.51 101.51 317.44 101.51C342.369 101.51 362.574 81.3056 362.574 56.3759C362.574 31.4462 342.369 11.2418 317.44 11.2418ZM317.44 70.2458C309.598 70.2458 303.248 63.8878 303.248 56.0541C303.248 49.4998 307.691 43.9817 313.727 42.349C314.912 42.0272 316.16 41.8545 317.44 41.8545C325.281 41.8545 331.631 48.2125 331.631 56.0462C331.631 63.8799 325.273 70.238 317.44 70.238V70.2458Z" stroke="white" stroke-width="1.56988" stroke-miterlimit="10"/>
<path d="M448.525 107.397C476.703 107.397 499.546 84.5541 499.546 56.3759C499.546 28.1977 476.703 5.3548 448.525 5.3548C420.346 5.3548 397.503 28.1977 397.503 56.3759C397.503 84.5541 420.346 107.397 448.525 107.397Z" stroke="white" stroke-width="1.56988" stroke-miterlimit="10"/>
<path d="M448.281 62.0197C451.398 62.0197 453.925 59.4929 453.925 56.376C453.925 53.259 451.398 50.7322 448.281 50.7322C445.164 50.7322 442.637 53.259 442.637 56.376C442.637 59.4929 445.164 62.0197 448.281 62.0197Z" stroke="white" stroke-width="1.56988" stroke-miterlimit="10"/>
<path d="M462.386 52.8673H493.658" stroke="white" stroke-width="1.56988" stroke-miterlimit="10"/>
<path d="M462.386 60.3635H493.431" stroke="white" stroke-width="1.56988" stroke-miterlimit="10"/>
<path d="M457.967 46.0932L473.721 18.9265" stroke="white" stroke-width="1.56988" stroke-miterlimit="10"/>
<path d="M451.907 42.6788L466.539 14.9861" stroke="white" stroke-width="1.56988" stroke-miterlimit="10"/>
<path d="M445.777 41.9253L431.193 14.9861" stroke="white" stroke-width="1.56988" stroke-miterlimit="10"/>
<path d="M439.278 45.3318L423.61 18.9265" stroke="white" stroke-width="1.56988" stroke-miterlimit="10"/>
<path d="M434.764 51.7919L403.649 51.4701" stroke="white" stroke-width="1.56988" stroke-miterlimit="10"/>
<path d="M403.649 59.5157H434.003" stroke="white" stroke-width="1.56988" stroke-miterlimit="10"/>
<path d="M439.278 67.4201L423.61 94.0217" stroke="white" stroke-width="1.56988" stroke-miterlimit="10"/>
<path d="M445.306 70.2772L430.133 97.6089" stroke="white" stroke-width="1.56988" stroke-miterlimit="10"/>
<path d="M451.083 70.2772L465.558 98.1897" stroke="white" stroke-width="1.56988" stroke-miterlimit="10"/>
<path d="M457.473 67.1139L472.881 94.3749" stroke="white" stroke-width="1.56988" stroke-miterlimit="10"/>
<path d="M403.39 56.3759C403.39 81.3056 423.595 101.51 448.524 101.51C473.454 101.51 493.658 81.3056 493.658 56.3759C493.658 31.4462 473.454 11.2418 448.524 11.2418C423.595 11.2418 403.39 31.4462 403.39 56.3759ZM462.394 56.3759C462.394 64.2175 456.036 70.5676 448.202 70.5676C441.648 70.5676 436.13 66.1249 434.497 60.0887C434.176 58.9034 434.003 57.6554 434.003 56.3759C434.003 48.5344 440.361 42.1842 448.195 42.1842C456.028 42.1842 462.386 48.5422 462.386 56.3759H462.394Z" stroke="white" stroke-width="1.56988" stroke-miterlimit="10"/>
<path d="M449.631 3H55.9835C26.7215 3 3 26.7215 3 55.9835C3 85.2455 26.7215 108.967 55.9835 108.967H449.631C478.893 108.967 502.615 85.2455 502.615 55.9835C502.615 26.7215 478.893 3 449.631 3Z" stroke="white" stroke-width="4.70964" stroke-miterlimit="10"/>
</svg>
