<svg width="316" height="181" viewBox="0 0 316 181" fill="none" xmlns="http://www.w3.org/2000/svg">
<path d="M280.147 109.59H126.74C125.231 109.59 124.009 110.638 124.009 111.932V128.323C124.009 129.617 125.231 130.665 126.74 130.665H278.782C280.291 130.665 281.513 129.617 281.513 128.323V110.761C281.513 110.117 280.898 109.59 280.147 109.59Z" fill="#9F9F9F" stroke="#383838" stroke-width="1.77967" stroke-miterlimit="10"/>
<path d="M275.089 106.739H251.538V109.705H275.089V106.739Z" fill="#7C7C7C" stroke="#383838" stroke-width="1.18644" stroke-miterlimit="10"/>
<path d="M277.343 101.697H249.283C248.628 101.697 248.097 102.228 248.097 102.883V105.552C248.097 106.208 248.628 106.739 249.283 106.739H277.343C277.998 106.739 278.529 106.208 278.529 105.552V102.883C278.529 102.228 277.998 101.697 277.343 101.697Z" fill="#7C7C7C" stroke="#383838" stroke-width="1.18644" stroke-miterlimit="10"/>
<path d="M272.212 98.1372H254.415C253.763 98.1372 253.229 98.6711 253.229 99.3237V100.807H273.398V99.3237C273.398 98.6711 272.865 98.1372 272.212 98.1372Z" fill="#7C7C7C" stroke="#383838" stroke-width="1.18644" stroke-miterlimit="10"/>
<path d="M268.356 95.171H258.271C257.618 95.171 257.084 95.7049 257.084 96.3575V97.8405H269.542V96.3575C269.542 95.7049 269.008 95.171 268.356 95.171Z" fill="#7C7C7C" stroke="#383838" stroke-width="1.18644" stroke-miterlimit="10"/>
<path d="M314.788 134.348V175.785C314.788 177.82 313.451 179.469 311.8 179.469H4.98833C3.33728 179.469 2 177.82 2 175.785V132.506C2 131.493 2.67238 130.665 3.49417 130.665H311.8C313.451 130.665 314.788 132.313 314.788 134.348Z" fill="#F7AB16" stroke="#383838" stroke-width="2.24322" stroke-miterlimit="10"/>
<path d="M110.043 98.2337V78.8672" stroke="#383838" stroke-width="2.24322" stroke-miterlimit="10"/>
<path d="M18.0942 78.8672V98.2337" stroke="#383838" stroke-width="2.24322" stroke-miterlimit="10"/>
<path d="M110.043 86.7259V68.1146" stroke="#383838" stroke-width="2.24322" stroke-miterlimit="10"/>
<path d="M18.0942 68.1146V86.7259" stroke="#383838" stroke-width="2.24322" stroke-miterlimit="10"/>
<path d="M18.0942 110.504V102.653" stroke="#383838" stroke-width="2.24322" stroke-miterlimit="10"/>
<path d="M110.043 102.653V110.504" stroke="#383838" stroke-width="2.24322" stroke-miterlimit="10"/>
<path d="M115.59 118.947H23.6402V129.707H115.59V118.947Z" fill="#F7AB16"/>
<path d="M23.6402 108.172H115.59V97.7182H23.6402V108.172Z" fill="#F7AB16"/>
<path d="M115.59 118.947V129.707L115.59 130.274H125.415V8.65489C122.14 9.23813 118.865 9.82137 115.59 10.4121L115.59 15.3846V21.1422L115.59 21.2832H115.776V26.0313H115.59V31.4759V97.7182V108.172V118.947Z" fill="#F7AB16"/>
<path d="M23.6401 130.274V26.8175C21.2473 27.2437 18.8546 27.6699 16.4693 28.0961V130.274H23.6401Z" fill="#F7AB16"/>
<path d="M128.765 2L12.2521 23.5648C12.0951 23.5947 11.9829 23.7293 11.9829 23.8863V28.455C11.9829 28.6569 12.1698 28.8139 12.3717 28.7766L128.885 7.95949C129.042 7.92958 129.154 7.79498 129.154 7.63796V2.329C129.154 2.11963 128.967 1.97009 128.765 2.00747V2Z" fill="#F7AB16"/>
<path d="M115.59 15.3846L82.8902 21.2832L115.59 21.1422V15.3846Z" fill="#F7AB16"/>
<path d="M55.5837 25.8903H115.59L115.59 21.2832H82.8902L55.5837 25.8903Z" fill="#F7AB16"/>
<path d="M23.6402 31.4759H115.59V26.0313L55.5837 25.8903L23.6402 31.4759Z" fill="#F7AB16"/>
<path d="M23.6402 118.947H115.59V108.172H23.6402V118.947Z" fill="#F7AB16"/>
<path d="M115.59 129.707H23.6402L23.7672 130.274H115.59L115.59 129.707Z" fill="#F7AB16"/>
<path d="M23.6401 26.8175L23.6402 31.4759L115.59 15.3846L115.59 10.4121L23.6401 26.8175Z" fill="#F7AB16"/>
<path fill-rule="evenodd" clip-rule="evenodd" d="M23.6402 97.7182H115.59V31.4759H23.6402V97.7182ZM34.9385 44.5464C34.9385 43.7239 35.6115 43.0509 36.434 43.0509H66.3436C67.1661 43.0509 67.8391 43.7239 67.8391 44.5464V81.9334C67.8391 82.7559 67.1661 83.4289 66.3436 83.4289H36.434C35.6115 83.4289 34.9385 82.7559 34.9385 81.9334V44.5464ZM78.3074 43.0509C77.4849 43.0509 76.812 43.7239 76.812 44.5464V81.9334C76.812 82.7559 77.4849 83.4289 78.3074 83.4289H105.974C106.796 83.4289 107.469 82.7559 107.469 81.9334V44.5464C107.469 43.7239 106.796 43.0509 105.974 43.0509H78.3074Z" fill="#F7AB16"/>
<path d="M115.59 118.947H23.6402M115.59 118.947V129.707M115.59 118.947V108.172M23.6402 118.947V129.707M23.6402 118.947V108.172M115.59 129.707H23.6402M115.59 129.707L115.59 130.274M23.6402 129.707L23.7672 130.274M23.6402 108.172H115.59M23.6402 108.172V97.7182M115.59 108.172V97.7182M23.6402 97.7182H115.59M23.6402 97.7182V31.4759M115.59 97.7182V31.4759M115.59 21.1422V15.3846M115.59 21.1422L82.8902 21.2832M115.59 21.1422L115.59 21.2832M115.59 15.3846L82.8902 21.2832M115.59 15.3846L115.59 10.4121M115.59 15.3846L23.6402 31.4759M82.8902 21.2832H115.59M82.8902 21.2832L55.5837 25.8903M23.6401 26.8175V130.274H16.4693M23.6401 26.8175C21.2473 27.2437 18.8546 27.6699 16.4693 28.0961V130.274M23.6401 26.8175L23.6402 31.4759M23.6401 26.8175L115.59 10.4121M16.4693 130.274C18.8994 130.274 21.3371 130.274 23.7672 130.274M23.7672 130.274C57.6473 130.274 91.5274 130.274 125.415 130.274M23.7672 130.274H115.59M125.415 130.274V8.65489C122.14 9.23813 118.865 9.82137 115.59 10.4121M125.415 130.274H115.59M115.59 10.4121V21.2832M115.59 130.274L115.59 26.0313M23.6402 31.4759H115.59M23.6402 31.4759L55.5837 25.8903M115.59 31.4759V26.0313M115.59 25.8903V26.0313M115.59 25.8903H55.5837M115.59 25.8903L115.59 21.2832M55.5837 25.8903L115.59 26.0313M115.59 21.2832H115.776V26.0313H115.59M115.59 21.2832L115.59 26.0313M128.765 2L12.2521 23.5648C12.0951 23.5947 11.9829 23.7293 11.9829 23.8863V28.455C11.9829 28.6569 12.1698 28.8139 12.3717 28.7766L128.885 7.95949C129.042 7.92958 129.154 7.79498 129.154 7.63796V2.329C129.154 2.11963 128.967 1.97009 128.765 2.00747V2ZM76.812 44.5464C76.812 43.7239 77.4849 43.0509 78.3074 43.0509H105.974C106.796 43.0509 107.469 43.7239 107.469 44.5464V81.9334C107.469 82.7559 106.796 83.4289 105.974 83.4289H78.3074C77.4849 83.4289 76.812 82.7559 76.812 81.9334V44.5464ZM34.9385 44.5464C34.9385 43.7239 35.6115 43.0509 36.434 43.0509H66.3436C67.1661 43.0509 67.8391 43.7239 67.8391 44.5464V81.9334C67.8391 82.7559 67.1661 83.4289 66.3436 83.4289H36.434C35.6115 83.4289 34.9385 82.7559 34.9385 81.9334V44.5464Z" stroke="#383838" stroke-width="2.24322" stroke-miterlimit="10"/>
</svg>
