<svg width="461" height="224" viewBox="0 0 461 224" fill="none" xmlns="http://www.w3.org/2000/svg">
<path d="M272.087 186.714L272.518 186.586V186.714H272.087Z" stroke="#383838" stroke-width="2.57652" stroke-miterlimit="10"/>
<path d="M281.093 161.649V166.234C281.093 166.537 280.817 166.766 280.513 166.712C280.21 166.658 279.913 166.598 279.637 166.544C278.154 166.267 276.677 167.016 276.01 168.364L273.947 172.557L270.61 179.332C270.01 180.552 268.77 181.321 267.415 181.321H265.123L262.217 186.714H181.995V47.5044H186.66C187.246 47.5044 187.725 47.0257 187.725 46.4392V40.4798C187.725 39.8933 187.246 39.4147 186.66 39.4147H181.995V38.9091C181.995 35.653 184.637 33.0104 187.893 33.0104H275.194C278.396 33.0104 280.999 35.5654 281.086 38.7406H278.026C276.927 38.7406 276.037 39.6304 276.037 40.7293V46.1898C276.037 47.2886 276.927 48.1785 278.026 48.1785H281.093L280.756 152.333" stroke="#383838" stroke-width="2.57652" stroke-miterlimit="10"/>
<path d="M181.995 174.573H165.391C164.117 174.573 163.079 173.541 163.079 172.26C163.079 170.986 164.11 169.948 165.391 169.948H181.995" stroke="#383838" stroke-width="2.57652" stroke-miterlimit="10"/>
<path d="M181.995 56.5107H161.663" stroke="#383838" stroke-width="2.57652" stroke-miterlimit="10"/>
<path d="M268.393 29.3025H246.146V32.6732H268.393V29.3025Z" stroke="#383838" stroke-width="2.57652" stroke-miterlimit="10"/>
<path d="M271.089 16.6624H243.45C243.077 16.6624 242.775 16.9642 242.775 17.3365V28.7968C242.775 29.1692 243.077 29.471 243.45 29.471H271.089C271.462 29.471 271.763 29.1692 271.763 28.7968V17.3365C271.763 16.9642 271.462 16.6624 271.089 16.6624Z" stroke="#383838" stroke-width="2.57652" stroke-miterlimit="10"/>
<path d="M252.409 11.1008H262.13C262.608 11.1008 262.999 11.4918 262.999 11.9705V16.4939H251.539V11.9705C251.539 11.4918 251.93 11.1008 252.409 11.1008Z" stroke="#383838" stroke-width="2.57652" stroke-miterlimit="10"/>
<path d="M271.992 20.3702H277.864C278.343 20.3702 278.734 20.7612 278.734 21.2399V24.8937C278.734 25.3723 278.343 25.7633 277.864 25.7633H271.992V20.3702Z" stroke="#383838" stroke-width="2.57652" stroke-miterlimit="10"/>
<path d="M246.847 16.6625V5.86279" stroke="#383838" stroke-width="2.57652" stroke-miterlimit="10"/>
<path d="M177.027 17.8422H170.285C169.913 17.8422 169.611 18.144 169.611 18.5163V25.9318C169.611 26.3041 169.913 26.606 170.285 26.606H177.027C177.399 26.606 177.701 26.3041 177.701 25.9318V18.5163C177.701 18.144 177.399 17.8422 177.027 17.8422Z" stroke="#383838" stroke-width="2.57652" stroke-miterlimit="10"/>
<path d="M181.995 54.2052C181.995 54.2052 171.438 52.2232 171.829 26.606" stroke="#383838" stroke-width="2.57652" stroke-miterlimit="10"/>
<path d="M181.995 48.5425C181.995 48.5425 174.916 46.156 175.253 27.2802" stroke="#383838" stroke-width="2.57652" stroke-miterlimit="10"/>
<path d="M172.099 17.8421V12.9344C172.099 12.9344 166.982 8.1413 172.099 3.55042" stroke="#383838" stroke-width="2.57652" stroke-miterlimit="10"/>
<path d="M175.22 18.1792V13.2715C175.22 13.2715 180.336 8.47833 175.22 3.88745" stroke="#383838" stroke-width="2.57652" stroke-miterlimit="10"/>
<path d="M201.882 21.2129C201.882 22.5545 201.39 23.7881 200.574 24.7319C200.412 24.9207 200.237 25.096 200.048 25.2578C199.098 26.1004 197.851 26.606 196.489 26.606C195.127 26.606 193.873 26.0937 192.923 25.2578C191.804 24.2735 191.096 22.8241 191.096 21.2129C191.096 18.2332 193.509 15.8198 196.489 15.8198C199.468 15.8198 201.882 18.2332 201.882 21.2129Z" stroke="#383838" stroke-width="2.57652" stroke-miterlimit="10"/>
<path d="M200.574 24.7318H242.775" stroke="#383838" stroke-width="2.57652" stroke-miterlimit="10"/>
<path d="M201.72 19.905H242.775" stroke="#383838" stroke-width="2.57652" stroke-miterlimit="10"/>
<path d="M221.432 19.905V4.89197" stroke="#383838" stroke-width="2.57652" stroke-miterlimit="10"/>
<path d="M207.949 25.2577V29.0194C207.949 29.552 207.525 29.9767 206.992 29.9767H203.048C202.408 29.9767 201.882 30.5025 201.882 31.1429V32.6732H188.399V28.4329C188.399 26.6801 189.822 25.2577 191.575 25.2577H192.923C193.873 26.0936 195.121 26.606 196.489 26.606C197.858 26.606 199.098 26.1004 200.049 25.2577H207.949Z" stroke="#383838" stroke-width="2.57652" stroke-miterlimit="10"/>
<path d="M187.725 40.4798V46.4392C187.725 47.0257 187.247 47.5043 186.66 47.5043H181.591C180.141 47.5043 178.961 46.3246 178.961 44.8752V40.4798C178.961 39.8933 179.44 39.4147 180.027 39.4147H186.66C187.247 39.4147 187.725 39.8933 187.725 40.4798Z" stroke="#383838" stroke-width="2.57652" stroke-miterlimit="10"/>
<path d="M282.138 38.7405H278.026C276.927 38.7405 276.037 39.6309 276.037 40.7292V46.1897C276.037 47.288 276.927 48.1784 278.026 48.1784H282.138C283.236 48.1784 284.127 47.288 284.127 46.1897V40.7292C284.127 39.6309 283.236 38.7405 282.138 38.7405Z" stroke="#383838" stroke-width="2.57652" stroke-miterlimit="10"/>
<path d="M301.487 30.2299L294.518 41.7723C293.748 43.0473 294.158 44.7048 295.433 45.4745C296.708 46.2442 298.365 45.8346 299.135 44.5597L306.103 33.0172C306.873 31.7423 306.464 30.0848 305.189 29.3151C303.914 28.5454 302.256 28.955 301.487 30.2299Z" stroke="#383838" stroke-width="2.57652" stroke-miterlimit="10"/>
<path d="M302.16 29.4711C296.599 19.5276 279.61 35.0058 279.61 35.0058" stroke="#383838" stroke-width="2.57652" stroke-miterlimit="10"/>
<path d="M284.127 41.5314C284.127 41.5314 292.217 25.9319 300.306 32.6732" stroke="#383838" stroke-width="2.57652" stroke-miterlimit="10"/>
<path d="M288.172 43.4594C288.172 43.4594 293.781 32.4709 297.61 36.0439" stroke="#383838" stroke-width="2.57652" stroke-miterlimit="10"/>
<path d="M288.529 42.8392C288.529 42.8392 286.824 46.8301 284.127 46.1897" stroke="#383838" stroke-width="2.57652" stroke-miterlimit="10"/>
<path d="M200.116 48.8525H196.071V148.962H200.116V48.8525Z" stroke="#383838" stroke-width="2.57652" stroke-miterlimit="10"/>
<path d="M198.093 48.8526C200.7 48.8526 202.812 46.7399 202.812 44.1336C202.812 41.5274 200.7 39.4147 198.093 39.4147C195.487 39.4147 193.375 41.5274 193.375 44.1336C193.375 46.7399 195.487 48.8526 198.093 48.8526Z" stroke="#383838" stroke-width="2.57652" stroke-miterlimit="10"/>
<path d="M184.685 186.714V160.18C184.685 159.196 185.48 158.4 186.464 158.4H191.689V186.714" stroke="#383838" stroke-width="2.57652" stroke-miterlimit="10"/>
<path d="M188.19 186.714V151.369C188.19 150.412 188.966 149.636 189.923 149.636H211.994" stroke="#383838" stroke-width="2.57652" stroke-miterlimit="10"/>
<path d="M184.684 177.188H181.995" stroke="#383838" stroke-width="2.57652" stroke-miterlimit="10"/>
<path d="M184.684 167.905H181.995" stroke="#383838" stroke-width="2.57652" stroke-miterlimit="10"/>
<path d="M221.823 149.636H240.2C243.422 149.636 246.038 152.252 246.038 155.474V186.714" stroke="#383838" stroke-width="2.57652" stroke-miterlimit="10"/>
<path d="M221.823 153.843H240.193C241.191 153.843 241.993 154.652 241.993 155.643V186.714" stroke="#383838" stroke-width="2.57652" stroke-miterlimit="10"/>
<path d="M191.487 158.4V155.548C191.487 154.605 192.249 153.843 193.192 153.843H211.994" stroke="#383838" stroke-width="2.57652" stroke-miterlimit="10"/>
<path d="M191.797 162.708H236.31C237.375 162.708 238.232 163.571 238.232 164.629V186.37" stroke="#383838" stroke-width="2.57652" stroke-miterlimit="10"/>
<path d="M238.238 170.278H191.689" stroke="#383838" stroke-width="2.57652" stroke-miterlimit="10"/>
<path d="M238.238 176.366H191.689" stroke="#383838" stroke-width="2.57652" stroke-miterlimit="10"/>
<path d="M238.238 181.786H192.107" stroke="#383838" stroke-width="2.57652" stroke-miterlimit="10"/>
<path d="M211.28 162.708V160.18C211.28 159.384 211.927 159.411 212.722 159.411H220.657C221.453 159.411 222.1 159.384 222.1 160.18V162.708" stroke="#383838" stroke-width="2.57652" stroke-miterlimit="10"/>
<path d="M221.823 147.681V154.895C221.823 155.528 221.311 156.041 220.677 156.041H213.133C212.5 156.041 211.987 155.528 211.987 154.895V147.681H221.816H221.823Z" stroke="#383838" stroke-width="2.57652" stroke-miterlimit="10"/>
<path d="M224.803 143.373V146.461C224.803 146.913 224.439 147.277 223.987 147.277H210.113C209.661 147.277 209.297 146.913 209.297 146.461V143.373C209.297 142.922 209.661 142.558 210.113 142.558H213.214C213.491 142.558 213.713 142.335 213.713 142.059V140.893C213.713 140.084 214.374 139.423 215.183 139.423H220.353C221.162 139.423 221.823 140.084 221.823 140.893V142.059C221.823 142.335 222.045 142.558 222.322 142.558H223.987C224.439 142.558 224.803 142.922 224.803 143.373Z" stroke="#383838" stroke-width="2.57652" stroke-miterlimit="10"/>
<path d="M238.238 164.636V159.964C238.238 158.818 238.852 157.766 239.843 157.2L244.764 154.389C245.728 153.836 246.827 153.546 247.939 153.546H277.048" stroke="#383838" stroke-width="2.57652" stroke-miterlimit="10"/>
<path d="M246.038 158.171H275.997" stroke="#383838" stroke-width="2.57652" stroke-miterlimit="10"/>
<path d="M246.038 165.027C250.198 165.027 253.575 168.404 253.575 172.564V175.071C253.575 179.231 250.198 182.608 246.038 182.608" stroke="#383838" stroke-width="2.57652" stroke-miterlimit="10"/>
<path d="M246.038 170.278H264.948" stroke="#383838" stroke-width="2.57652" stroke-miterlimit="10"/>
<path d="M246.038 175.307H262.217" stroke="#383838" stroke-width="2.57652" stroke-miterlimit="10"/>
<path d="M252.409 168.546L275.275 159.411" stroke="#383838" stroke-width="2.57652" stroke-miterlimit="10"/>
<path d="M276.368 160.422L265.123 181.321" stroke="#383838" stroke-width="2.57652" stroke-miterlimit="10"/>
<path d="M272.518 166.759L264.739 180.943C262.13 179.507 261.172 176.231 262.602 173.622L265.197 168.896C266.633 166.287 269.909 165.33 272.518 166.759Z" stroke="#383838" stroke-width="2.57652" stroke-miterlimit="10"/>
<path d="M251.337 158.171V153.546" stroke="#383838" stroke-width="2.57652" stroke-miterlimit="10"/>
<path d="M258.186 158.171V153.546" stroke="#383838" stroke-width="2.57652" stroke-miterlimit="10"/>
<path d="M265.19 158.171V153.843" stroke="#383838" stroke-width="2.57652" stroke-miterlimit="10"/>
<path d="M270.55 158.171V153.546" stroke="#383838" stroke-width="2.57652" stroke-miterlimit="10"/>
<path d="M294.576 179.972L281.093 184.017V186.714H272.518V183.707C272.518 182.089 273.637 180.694 275.208 180.343L281.093 179.022L290.646 176.878C290.942 176.811 291.239 176.817 291.522 176.878C291.967 176.973 292.378 177.222 292.668 177.593L294.576 179.972Z" stroke="#383838" stroke-width="2.57652" stroke-miterlimit="10"/>
<path d="M294.576 179.972L305.45 177.276L328.667 171.519" stroke="#383838" stroke-width="2.57652" stroke-miterlimit="10"/>
<path d="M265.122 181.321H264.732" stroke="#383838" stroke-width="2.57652" stroke-miterlimit="10"/>
<path d="M281.093 166.82V172.557C279.044 172.321 276.678 172.287 273.947 172.557L276.01 168.364C276.678 167.009 278.161 166.261 279.65 166.544C280.089 166.625 280.567 166.719 281.093 166.82Z" stroke="#383838" stroke-width="2.57652" stroke-miterlimit="10"/>
<path d="M281.093 166.82C283.716 167.339 287.349 168.135 291.097 169.186C297.05 162.445 302.396 168.546 302.396 168.546C302.396 168.546 314.8 168.512 320.193 162.108C325.586 155.703 332.328 161.063 332.328 161.063V169.186" stroke="#383838" stroke-width="2.57652" stroke-miterlimit="10"/>
<path d="M291.522 176.878C291.239 176.817 290.942 176.811 290.646 176.878L281.093 179.022L275.208 180.343C273.637 180.694 272.518 182.089 272.518 183.707V186.586L272.087 186.714H262.217L265.123 181.321H267.415C268.77 181.321 270.01 180.552 270.61 179.332L273.947 172.557C276.678 172.287 279.044 172.314 281.093 172.55C286.075 173.123 289.21 174.923 291.205 176.602C291.313 176.696 291.421 176.784 291.522 176.878Z" stroke="#383838" stroke-width="2.57652" stroke-miterlimit="10"/>
<path d="M297.947 176.602C299.808 176.602 301.318 175.093 301.318 173.231C301.318 171.37 299.808 169.86 297.947 169.86C296.085 169.86 294.576 171.37 294.576 173.231C294.576 175.093 296.085 176.602 297.947 176.602Z" stroke="#383838" stroke-width="2.57652" stroke-miterlimit="10"/>
<path d="M271.656 69.4137H258.173C257.056 69.4137 256.15 70.3192 256.15 71.4361V78.1775C256.15 79.2944 257.056 80.1999 258.173 80.1999H271.656C272.773 80.1999 273.678 79.2944 273.678 78.1775V71.4361C273.678 70.3192 272.773 69.4137 271.656 69.4137Z" stroke="#383838" stroke-width="2.57652" stroke-miterlimit="10"/>
<path d="M260.33 64.6948H268.824C270.017 64.6948 270.981 65.6588 270.981 66.8521V69.4138H258.172V66.8521C258.172 65.6588 259.136 64.6948 260.33 64.6948Z" stroke="#383838" stroke-width="2.57652" stroke-miterlimit="10"/>
<path d="M266.937 51.212H261.543V64.0207H266.937V51.212Z" stroke="#383838" stroke-width="2.57652" stroke-miterlimit="10"/>
<path d="M258.847 45.1448H270.307V48.684C270.307 50.0795 269.174 51.212 267.779 51.212H261.375C259.979 51.212 258.847 50.0795 258.847 48.684V45.1448Z" stroke="#383838" stroke-width="2.57652" stroke-miterlimit="10"/>
<path d="M258.981 38.4034H272.195C272.639 38.4034 273.003 38.7675 273.003 39.2124V42.1382C273.003 43.4258 271.959 44.4707 270.671 44.4707H259.177C258.624 44.4707 258.179 44.0258 258.179 43.473V39.2124C258.179 38.7675 258.543 38.4034 258.988 38.4034H258.981Z" stroke="#383838" stroke-width="2.57652" stroke-miterlimit="10"/>
<path d="M273.678 72.7845H275.842C276.509 72.7845 277.048 73.3239 277.048 73.9912V75.6294C277.048 76.2968 276.509 76.8361 275.842 76.8361H273.678V72.7913V72.7845Z" stroke="#383838" stroke-width="2.57652" stroke-miterlimit="10"/>
<path d="M264.24 38.4034H272.147C272.619 38.4034 273.003 38.7877 273.003 39.2596V40.9989C273.003 41.4303 272.653 41.7809 272.221 41.7809H265.123C264.631 41.7809 264.233 41.3831 264.233 40.891V38.4102L264.24 38.4034Z" stroke="#383838" stroke-width="2.57652" stroke-miterlimit="10"/>
<path d="M354.574 186.04C354.574 186.04 351.204 165.141 367.383 164.467C368.772 164.407 370.046 164.285 371.212 164.11C377.926 163.092 382.956 157.517 383.63 150.755C384.263 144.439 388.025 132.001 407.858 131.697C408.667 131.684 409.341 132.324 409.362 133.14C409.685 150.715 409.335 186.04 409.335 186.04H354.581H354.574Z" stroke="#383838" stroke-width="2.57652" stroke-miterlimit="10"/>
<path d="M358.619 186.04C358.619 186.04 357.271 180.646 370.08 180.646H392.306C392.306 180.646 401.764 180.646 401.764 163.119V139.814C401.764 139.814 401.09 132.109 408.6 131.9" stroke="#383838" stroke-width="2.57652" stroke-miterlimit="10"/>
<path d="M366.709 164.467L361.99 165.141V147.951C361.99 146.65 363.048 145.591 364.349 145.591C365.65 145.591 366.709 146.65 366.709 147.951V164.467Z" stroke="#383838" stroke-width="2.57652" stroke-miterlimit="10"/>
<path d="M335.164 176.066C336.752 174.478 336.769 171.922 335.202 170.355C333.636 168.789 331.079 168.806 329.492 170.393C327.904 171.981 327.887 174.538 329.453 176.104C331.02 177.671 333.577 177.653 335.164 176.066Z" stroke="#383838" stroke-width="2.57652" stroke-miterlimit="10"/>
<path d="M335.164 176.066C336.752 174.478 336.769 171.922 335.202 170.355C333.636 168.789 331.079 168.806 329.492 170.393C327.904 171.981 327.887 174.538 329.453 176.104C331.02 177.671 333.577 177.653 335.164 176.066Z" stroke="#383838" stroke-width="2.57652" stroke-miterlimit="10"/>
<path d="M330.953 160.496C325.277 161.123 320.733 165.782 320.241 171.471C320.066 173.534 320.396 175.516 321.151 177.276C321.791 178.813 322.755 180.188 323.942 181.321C324.185 181.563 324.441 181.786 324.704 181.995C326.787 183.68 329.443 184.691 332.328 184.691C335.213 184.691 337.87 183.68 339.953 181.995C340.216 181.786 340.472 181.563 340.714 181.321C341.901 180.188 342.865 178.813 343.505 177.276C344.126 175.826 344.463 174.229 344.463 172.557C344.463 165.404 338.267 159.694 330.953 160.496ZM333.252 177.168C330.306 177.822 327.731 175.247 328.384 172.301C328.715 170.818 329.915 169.618 331.398 169.287C334.344 168.633 336.919 171.209 336.265 174.155C335.935 175.638 334.735 176.838 333.252 177.168Z" stroke="#383838" stroke-width="2.57652" stroke-miterlimit="10"/>
<path d="M349.181 182.163V186.04H313.452V182.157C313.452 182.069 313.526 181.995 313.614 181.995H319.519V177.438C319.519 177.35 319.594 177.276 319.681 177.276H321.151C321.791 178.813 322.755 180.188 323.942 181.321C324.184 181.563 324.441 181.786 324.704 181.995C326.787 183.68 329.443 184.691 332.328 184.691C335.213 184.691 337.869 183.68 339.953 181.995C340.215 181.786 340.472 181.563 340.714 181.321C341.901 180.188 342.865 178.813 343.505 177.276H344.301C344.388 177.276 344.463 177.35 344.463 177.438V181.995H349.013C349.107 181.995 349.181 182.069 349.181 182.163Z" stroke="#383838" stroke-width="2.57652" stroke-miterlimit="10"/>
<path d="M221.432 5.37069C222.363 5.37069 223.117 4.61614 223.117 3.68535C223.117 2.75455 222.363 2 221.432 2C220.501 2 219.747 2.75455 219.747 3.68535C219.747 4.61614 220.501 5.37069 221.432 5.37069Z" stroke="#383838" stroke-width="2.57652" stroke-miterlimit="10"/>
<path d="M247.049 6.04476C247.98 6.04476 248.734 5.29021 248.734 4.35942C248.734 3.42863 247.98 2.67407 247.049 2.67407C246.118 2.67407 245.364 3.42863 245.364 4.35942C245.364 5.29021 246.118 6.04476 247.049 6.04476Z" stroke="#383838" stroke-width="2.57652" stroke-miterlimit="10"/>
<path d="M280.756 162.108C283.734 162.108 286.149 159.693 286.149 156.715C286.149 153.736 283.734 151.322 280.756 151.322C277.777 151.322 275.363 153.736 275.363 156.715C275.363 159.693 277.777 162.108 280.756 162.108Z" stroke="#383838" stroke-width="2.57652" stroke-miterlimit="10"/>
<path d="M17.3702 162.108H168.849C170.339 162.108 171.546 163.314 171.546 164.804V183.68C171.546 185.17 170.339 186.377 168.849 186.377H18.7185C17.2287 186.377 16.022 185.17 16.022 183.68V163.456C16.022 162.715 16.6287 162.108 17.3702 162.108Z" fill="#F7AB16" stroke="#383838" stroke-width="2.02241" stroke-miterlimit="10"/>
<path d="M23.8086 158.737H50.5719V162.108H23.8086V158.737Z" fill="#F7AB16" stroke="#383838" stroke-width="1.34828" stroke-miterlimit="10"/>
<path d="M21.2467 153.007H53.1335C53.8781 153.007 54.4817 153.611 54.4817 154.355V157.389C54.4817 158.133 53.8781 158.737 53.1335 158.737H21.2467C20.5021 158.737 19.8984 158.133 19.8984 157.389V154.355C19.8984 153.611 20.5021 153.007 21.2467 153.007Z" fill="#F7AB16" stroke="#383838" stroke-width="1.34828" stroke-miterlimit="10"/>
<path d="M27.0783 148.962H47.3024C48.044 148.962 48.6507 149.569 48.6507 150.31V151.996H25.73V150.31C25.73 149.569 26.3367 148.962 27.0783 148.962Z" fill="#F7AB16" stroke="#383838" stroke-width="1.34828" stroke-miterlimit="10"/>
<path d="M31.4601 145.591H42.9204C43.662 145.591 44.2687 146.198 44.2687 146.94V148.625H30.1118V146.94C30.1118 146.198 30.7185 145.591 31.4601 145.591Z" fill="#F7AB16" stroke="#383838" stroke-width="1.34828" stroke-miterlimit="10"/>
<path d="M459.403 189.41V219.747C459.403 221.236 458.196 222.443 456.706 222.443H4.69656C3.20671 222.443 2 221.236 2 219.747V188.062C2 187.321 2.60673 186.714 3.34828 186.714H456.706C458.196 186.714 459.403 187.921 459.403 189.41Z" fill="#F7AB16" stroke="#383838" stroke-width="2.02241" stroke-miterlimit="10"/>
<path d="M151.901 142.221V124.761" stroke="#383838" stroke-width="2.02241" stroke-miterlimit="10"/>
<path d="M69.0024 124.761V142.221" stroke="#383838" stroke-width="2.02241" stroke-miterlimit="10"/>
<path d="M69.0024 162.708V155.764" stroke="#383838" stroke-width="2.02241" stroke-miterlimit="10"/>
<path d="M151.901 155.764V162.708" stroke="#383838" stroke-width="2.02241" stroke-miterlimit="10"/>
<path d="M151.901 131.846V115.066" stroke="#383838" stroke-width="2.02241" stroke-miterlimit="10"/>
<path d="M69.0024 115.066V131.846" stroke="#383838" stroke-width="2.02241" stroke-miterlimit="10"/>
<path d="M69.0024 153.283V146.205" stroke="#383838" stroke-width="2.02241" stroke-miterlimit="10"/>
<path d="M151.901 146.205V153.283" stroke="#383838" stroke-width="2.02241" stroke-miterlimit="10"/>
<path d="M151.901 142.895H69.0025V152.596H151.901V142.895Z" fill="#F7AB16"/>
<path d="M69.0025 133.181H151.901V123.756H69.0025V133.181Z" fill="#F7AB16"/>
<path d="M151.901 142.895V152.596L151.901 162.108H160.759V43.4594C157.807 43.9853 154.854 44.5111 151.901 45.0437L151.901 49.5267V54.7175L151.901 54.8447H152.069V59.1255H151.901V64.0342V123.756V133.181V142.895Z" fill="#F7AB16"/>
<path d="M69.0024 162.108V59.8342C66.8452 60.2185 64.6879 60.6028 62.5374 60.987V162.108H69.0024Z" fill="#F7AB16"/>
<path d="M163.78 37.4596L58.7354 56.9017C58.5938 56.9287 58.4927 57.05 58.4927 57.1916V61.3106C58.4927 61.4926 58.6612 61.6342 58.8432 61.6005L163.887 42.8325C164.029 42.8055 164.13 42.6842 164.13 42.5426V37.7562C164.13 37.5675 163.962 37.4326 163.78 37.4663V37.4596Z" fill="#F7AB16"/>
<path d="M151.901 49.5267L122.42 54.8447L151.901 54.7175V49.5267Z" fill="#F7AB16"/>
<path d="M97.8017 58.9983H151.901L151.901 54.8447H122.42L97.8017 58.9983Z" fill="#F7AB16"/>
<path d="M69.0025 64.0342H151.901V59.1255L97.8017 58.9983L69.0025 64.0342Z" fill="#F7AB16"/>
<path d="M69.0025 142.895H151.901V133.181H69.0025V142.895Z" fill="#F7AB16"/>
<path d="M151.901 152.596H69.0025L69.117 162.108H151.901L151.901 152.596Z" fill="#F7AB16"/>
<path d="M69.0024 59.8342L69.0025 64.0342L151.901 49.5267L151.901 45.0437L69.0024 59.8342Z" fill="#F7AB16"/>
<path fill-rule="evenodd" clip-rule="evenodd" d="M69.0025 123.756H151.901V64.0342H69.0025V123.756ZM79.1887 75.8181C79.1887 75.0765 79.7955 74.4698 80.537 74.4698H107.503C108.244 74.4698 108.851 75.0765 108.851 75.8181V109.525C108.851 110.267 108.244 110.873 107.503 110.873H80.537C79.7955 110.873 79.1887 110.267 79.1887 109.525V75.8181ZM118.289 74.4698C117.547 74.4698 116.94 75.0765 116.94 75.8181V109.525C116.94 110.267 117.547 110.873 118.289 110.873H143.232C143.973 110.873 144.58 110.267 144.58 109.525V75.8181C144.58 75.0765 143.973 74.4698 143.232 74.4698H118.289Z" fill="#F7AB16"/>
<path d="M151.901 142.895H69.0025M151.901 142.895V152.596M151.901 142.895V133.181M69.0025 142.895V152.596M69.0025 142.895V133.181M151.901 152.596H69.0025M151.901 152.596L151.901 162.108M69.0025 152.596L69.117 162.108M69.0025 133.181H151.901M69.0025 133.181V123.756M151.901 133.181V123.756M69.0025 123.756H151.901M69.0025 123.756V64.0342M151.901 123.756V64.0342M151.901 54.7175V49.5267M151.901 54.7175L122.42 54.8447M151.901 54.7175L151.901 54.8447M151.901 49.5267L122.42 54.8447M151.901 49.5267L151.901 45.0437M151.901 49.5267L69.0025 64.0342M122.42 54.8447H151.901M122.42 54.8447L97.8017 58.9983M69.0024 59.8342V162.108H62.5374M69.0024 59.8342C66.8452 60.2185 64.6879 60.6028 62.5374 60.987V162.108M69.0024 59.8342L69.0025 64.0342M69.0024 59.8342L151.901 45.0437M62.5374 162.108C64.7284 162.108 66.9261 162.108 69.117 162.108M69.117 162.108C99.6622 162.108 130.207 162.108 160.759 162.108M69.117 162.108H151.901M160.759 162.108V43.4594C157.807 43.9853 154.854 44.5111 151.901 45.0437M160.759 162.108H151.901M151.901 45.0437V54.8447M151.901 162.108L151.901 59.1255M69.0025 64.0342H151.901M69.0025 64.0342L97.8017 58.9983M151.901 64.0342V59.1255M151.901 58.9983V59.1255M151.901 58.9983H97.8017M151.901 58.9983L151.901 54.8447M97.8017 58.9983L151.901 59.1255M151.901 54.8447H152.069V59.1255H151.901M151.901 54.8447L151.901 59.1255M163.78 37.4596L58.7354 56.9017C58.5938 56.9287 58.4927 57.05 58.4927 57.1916V61.3106C58.4927 61.4926 58.6612 61.6342 58.8432 61.6005L163.887 42.8325C164.029 42.8055 164.13 42.6842 164.13 42.5426V37.7562C164.13 37.5675 163.962 37.4326 163.78 37.4663V37.4596ZM116.94 75.8181C116.94 75.0765 117.547 74.4698 118.289 74.4698H143.232C143.973 74.4698 144.58 75.0765 144.58 75.8181V109.525C144.58 110.267 143.973 110.873 143.232 110.873H118.289C117.547 110.873 116.94 110.267 116.94 109.525V75.8181ZM79.1887 75.8181C79.1887 75.0765 79.7955 74.4698 80.537 74.4698H107.503C108.244 74.4698 108.851 75.0765 108.851 75.8181V109.525C108.851 110.267 108.244 110.873 107.503 110.873H80.537C79.7955 110.873 79.1887 110.267 79.1887 109.525V75.8181Z" stroke="#383838" stroke-width="2.02241" stroke-miterlimit="10"/>
</svg>
