<svg width="242" height="99" viewBox="0 0 242 99" fill="none" xmlns="http://www.w3.org/2000/svg">
<path d="M52.7462 62.5723V91.4583L45.8276 91.2552V62.5723H52.7462Z" stroke="#383838" stroke-width="3.69573" stroke-miterlimit="10"/>
<path d="M59.0124 58.4892L84.2844 73.5066L88.4421 66.5771L62.1669 52.8904L59.0124 58.4892Z" stroke="#383838" stroke-width="3.69573" stroke-miterlimit="10"/>
<path d="M62.8631 47.2191L87.9801 33.3155L84.7463 26.386L59.7086 41.2142L62.8631 47.2191Z" stroke="#383838" stroke-width="3.69573" stroke-miterlimit="10"/>
<path d="M53.7473 37.0441V7.90735H46.6109V36.3406L53.7473 37.0441Z" stroke="#383838" stroke-width="3.69573" stroke-miterlimit="10"/>
<path d="M36.6679 52.1289L10.8787 65.4949L13.6035 72.5826L39.5835 58.0251L36.6679 52.1289Z" stroke="#383838" stroke-width="3.69573" stroke-miterlimit="10"/>
<path d="M39.3078 41.2142L14.0655 26.7458L11.4153 32.7724L36.6679 46.7912L39.3078 41.2142Z" stroke="#383838" stroke-width="3.69573" stroke-miterlimit="10"/>
<path fill-rule="evenodd" clip-rule="evenodd" d="M96.652 49.7575C96.652 75.7923 75.5467 96.8976 49.5119 96.8976C23.4772 96.8976 2.37183 75.7923 2.37183 49.7575C2.37183 23.7228 23.4772 2.61743 49.5119 2.61743C75.5467 2.61743 96.652 23.7228 96.652 49.7575ZM7.81099 49.7575C7.81099 26.7241 26.4785 8.05666 49.5118 8.05666C72.5452 8.05666 91.2127 26.7241 91.2127 49.7575C91.2127 72.7909 72.5452 91.4584 49.5118 91.4584C26.4785 91.4584 7.81099 72.7909 7.81099 49.7575Z" fill="#666666"/>
<path fill-rule="evenodd" clip-rule="evenodd" d="M49.5118 62.5724C42.2668 62.5724 36.3996 56.698 36.3996 49.4602C36.3996 43.4045 40.5045 38.3061 46.0815 36.7976C47.1766 36.5003 48.3297 36.3407 49.5118 36.3407C56.7569 36.3407 62.624 42.2151 62.624 49.4529C62.624 56.6907 56.7497 62.5651 49.5118 62.5651V62.5724ZM49.5119 54.7472C52.3918 54.7472 54.7263 52.4126 54.7263 49.5327C54.7263 46.6529 52.3918 44.3183 49.5119 44.3183C46.6321 44.3183 44.2975 46.6529 44.2975 49.5327C44.2975 52.4126 46.6321 54.7472 49.5119 54.7472Z" fill="#666666"/>
<path d="M54.7263 49.5327C54.7263 52.4126 52.3918 54.7472 49.5119 54.7472C46.6321 54.7472 44.2975 52.4126 44.2975 49.5327C44.2975 46.6529 46.6321 44.3183 49.5119 44.3183C52.3918 44.3183 54.7263 46.6529 54.7263 49.5327Z" fill="#383838"/>
<path fill-rule="evenodd" clip-rule="evenodd" d="M96.652 49.7575C96.652 75.7923 75.5467 96.8976 49.5119 96.8976C23.4772 96.8976 2.37183 75.7923 2.37183 49.7575C2.37183 23.7228 23.4772 2.61743 49.5119 2.61743C75.5467 2.61743 96.652 23.7228 96.652 49.7575ZM7.81099 49.7575C7.81099 26.7241 26.4785 8.05666 49.5118 8.05666C72.5452 8.05666 91.2127 26.7241 91.2127 49.7575C91.2127 72.7909 72.5452 91.4584 49.5118 91.4584C26.4785 91.4584 7.81099 72.7909 7.81099 49.7575Z" stroke="#666666" stroke-width="3.69573" stroke-miterlimit="10"/>
<path fill-rule="evenodd" clip-rule="evenodd" d="M49.5118 62.5724C42.2668 62.5724 36.3996 56.698 36.3996 49.4602C36.3996 43.4045 40.5045 38.3061 46.0815 36.7976C47.1766 36.5003 48.3297 36.3407 49.5118 36.3407C56.7569 36.3407 62.624 42.2151 62.624 49.4529C62.624 56.6907 56.7497 62.5651 49.5118 62.5651V62.5724ZM49.5119 54.7472C52.3918 54.7472 54.7263 52.4126 54.7263 49.5327C54.7263 46.6529 52.3918 44.3183 49.5119 44.3183C46.6321 44.3183 44.2975 46.6529 44.2975 49.5327C44.2975 52.4126 46.6321 54.7472 49.5119 54.7472Z" stroke="#666666" stroke-width="3.69573" stroke-miterlimit="10"/>
<path d="M54.7263 49.5327C54.7263 52.4126 52.3918 54.7472 49.5119 54.7472C46.6321 54.7472 44.2975 52.4126 44.2975 49.5327C44.2975 46.6529 46.6321 44.3183 49.5119 44.3183C52.3918 44.3183 54.7263 46.6529 54.7263 49.5327Z" stroke="#666666" stroke-width="3.69573" stroke-miterlimit="10"/>
<path d="M205.675 46.5156H234.568" stroke="#383838" stroke-width="3.69573" stroke-miterlimit="10"/>
<path d="M205.675 53.4418H234.358" stroke="#383838" stroke-width="3.69573" stroke-miterlimit="10"/>
<path d="M201.592 40.2569L216.147 15.1566" stroke="#383838" stroke-width="3.69573" stroke-miterlimit="10"/>
<path d="M195.993 37.1023L209.511 11.5161" stroke="#383838" stroke-width="3.69573" stroke-miterlimit="10"/>
<path d="M190.329 36.4061L176.854 11.5161" stroke="#383838" stroke-width="3.69573" stroke-miterlimit="10"/>
<path d="M184.324 39.5534L169.849 15.1566" stroke="#383838" stroke-width="3.69573" stroke-miterlimit="10"/>
<path d="M180.154 45.522L151.406 45.2246" stroke="#383838" stroke-width="3.69573" stroke-miterlimit="10"/>
<path d="M151.406 52.6586H179.45" stroke="#383838" stroke-width="3.69573" stroke-miterlimit="10"/>
<path d="M184.324 59.9614L169.849 84.5395" stroke="#383838" stroke-width="3.69573" stroke-miterlimit="10"/>
<path d="M189.894 62.6016L175.875 87.8542" stroke="#383838" stroke-width="3.69573" stroke-miterlimit="10"/>
<path d="M195.231 62.6016L208.605 88.3908" stroke="#383838" stroke-width="3.69573" stroke-miterlimit="10"/>
<path d="M201.135 59.6786L215.371 84.8659" stroke="#383838" stroke-width="3.69573" stroke-miterlimit="10"/>
<path fill-rule="evenodd" clip-rule="evenodd" d="M240.007 49.7575C240.007 75.7923 218.902 96.8976 192.867 96.8976C166.833 96.8976 145.727 75.7923 145.727 49.7575C145.727 23.7228 166.833 2.61743 192.867 2.61743C218.902 2.61743 240.007 23.7228 240.007 49.7575ZM192.867 91.4584C169.834 91.4584 151.167 72.7909 151.167 49.7575C151.167 26.7241 169.834 8.05666 192.867 8.05666C215.901 8.05666 234.568 26.7241 234.568 49.7575C234.568 72.7909 215.901 91.4584 192.867 91.4584Z" fill="#666666"/>
<path fill-rule="evenodd" clip-rule="evenodd" d="M205.682 49.7575C205.682 57.0026 199.808 62.8697 192.57 62.8697C186.514 62.8697 181.416 58.7649 179.907 53.1879C179.61 52.0928 179.451 50.9396 179.451 49.7575C179.451 42.5124 185.325 36.6453 192.563 36.6453C199.801 36.6453 205.675 42.5197 205.675 49.7575H205.682ZM192.642 54.972C195.522 54.972 197.857 52.6374 197.857 49.7575C197.857 46.8777 195.522 44.5431 192.642 44.5431C189.763 44.5431 187.428 46.8777 187.428 49.7575C187.428 52.6374 189.763 54.972 192.642 54.972Z" fill="#666666"/>
<path d="M197.857 49.7575C197.857 52.6374 195.522 54.972 192.642 54.972C189.763 54.972 187.428 52.6374 187.428 49.7575C187.428 46.8777 189.763 44.5431 192.642 44.5431C195.522 44.5431 197.857 46.8777 197.857 49.7575Z" fill="#383838"/>
<path fill-rule="evenodd" clip-rule="evenodd" d="M240.007 49.7575C240.007 75.7923 218.902 96.8976 192.867 96.8976C166.833 96.8976 145.727 75.7923 145.727 49.7575C145.727 23.7228 166.833 2.61743 192.867 2.61743C218.902 2.61743 240.007 23.7228 240.007 49.7575ZM192.867 91.4584C169.834 91.4584 151.167 72.7909 151.167 49.7575C151.167 26.7241 169.834 8.05666 192.867 8.05666C215.901 8.05666 234.568 26.7241 234.568 49.7575C234.568 72.7909 215.901 91.4584 192.867 91.4584Z" stroke="#666666" stroke-width="3.69573" stroke-miterlimit="10"/>
<path fill-rule="evenodd" clip-rule="evenodd" d="M205.682 49.7575C205.682 57.0026 199.808 62.8697 192.57 62.8697C186.514 62.8697 181.416 58.7649 179.907 53.1879C179.61 52.0928 179.451 50.9396 179.451 49.7575C179.451 42.5124 185.325 36.6453 192.563 36.6453C199.801 36.6453 205.675 42.5197 205.675 49.7575H205.682ZM192.642 54.972C195.522 54.972 197.857 52.6374 197.857 49.7575C197.857 46.8777 195.522 44.5431 192.642 44.5431C189.763 44.5431 187.428 46.8777 187.428 49.7575C187.428 52.6374 189.763 54.972 192.642 54.972Z" stroke="#666666" stroke-width="3.69573" stroke-miterlimit="10"/>
<path d="M197.857 49.7575C197.857 52.6374 195.522 54.972 192.642 54.972C189.763 54.972 187.428 52.6374 187.428 49.7575C187.428 46.8777 189.763 44.5431 192.642 44.5431C195.522 44.5431 197.857 46.8777 197.857 49.7575Z" stroke="#666666" stroke-width="3.69573" stroke-miterlimit="10"/>
</svg>
