<svg width="436" height="98" viewBox="0 0 436 98" fill="none" xmlns="http://www.w3.org/2000/svg">
<path d="M387.484 3.776H49.4041C24.2728 3.776 3.89978 24.149 3.89978 49.2803C3.89978 74.4117 24.2728 94.7847 49.4041 94.7847H387.484C412.616 94.7847 432.989 74.4117 432.989 49.2803C432.989 24.149 412.616 3.776 387.484 3.776Z" stroke="#383838" stroke-width="6" stroke-miterlimit="10"/>
<path d="M53.1454 61.5295V88.3804L46.7143 88.1917V61.5295H53.1454Z" stroke="#383838" stroke-width="3.43536" stroke-miterlimit="10"/>
<path d="M58.9702 57.7341L82.4617 71.6934L86.3265 65.2521L61.9025 52.5298L58.9702 57.7341Z" stroke="#383838" stroke-width="3.43536" stroke-miterlimit="10"/>
<path d="M62.5496 47.258L85.897 34.3339L82.8911 27.8926L59.6173 41.6761L62.5496 47.258Z" stroke="#383838" stroke-width="3.43536" stroke-miterlimit="10"/>
<path d="M54.076 37.7998V10.7158H47.4424V37.1459L54.076 37.7998Z" stroke="#383838" stroke-width="3.43536" stroke-miterlimit="10"/>
<path d="M38.1999 51.8219L14.2275 64.2463L16.7604 70.8346L40.91 57.3026L38.1999 51.8219Z" stroke="#383838" stroke-width="3.43536" stroke-miterlimit="10"/>
<path d="M40.6538 41.6761L17.1899 28.2271L14.7263 33.8291L38.1998 46.8602L40.6538 41.6761Z" stroke="#383838" stroke-width="3.43536" stroke-miterlimit="10"/>
<path fill-rule="evenodd" clip-rule="evenodd" d="M93.9578 49.6174C93.9578 73.818 74.3394 93.4364 50.1388 93.4364C25.9383 93.4364 6.31982 73.818 6.31982 49.6174C6.31982 25.4169 25.9383 5.79846 50.1388 5.79846C74.3394 5.79846 93.9578 25.4169 93.9578 49.6174ZM11.3758 49.6174C11.3758 28.2068 28.7281 10.8545 50.1387 10.8545C71.5494 10.8545 88.9017 28.2068 88.9017 49.6174C88.9017 71.0281 71.5494 88.3804 50.1387 88.3804C28.7281 88.3804 11.3758 71.0281 11.3758 49.6174Z" fill="#666666"/>
<path fill-rule="evenodd" clip-rule="evenodd" d="M50.1387 61.5294C43.4041 61.5294 37.9503 56.0689 37.9503 49.341C37.9503 43.712 41.7659 38.9728 46.9501 37.5706C47.968 37.2942 49.0399 37.1459 50.1387 37.1459C56.8734 37.1459 62.3272 42.6064 62.3272 49.3343C62.3272 56.0622 56.8666 61.5227 50.1387 61.5227V61.5294ZM50.1388 54.2556C52.8158 54.2556 54.9859 52.0854 54.9859 49.4085C54.9859 46.7315 52.8158 44.5614 50.1388 44.5614C47.4618 44.5614 45.2917 46.7315 45.2917 49.4085C45.2917 52.0854 47.4618 54.2556 50.1388 54.2556Z" fill="#666666"/>
<path d="M54.9859 49.4085C54.9859 52.0854 52.8158 54.2556 50.1388 54.2556C47.4618 54.2556 45.2917 52.0854 45.2917 49.4085C45.2917 46.7315 47.4618 44.5614 50.1388 44.5614C52.8158 44.5614 54.9859 46.7315 54.9859 49.4085Z" fill="#383838"/>
<path fill-rule="evenodd" clip-rule="evenodd" d="M93.9578 49.6174C93.9578 73.818 74.3394 93.4364 50.1388 93.4364C25.9383 93.4364 6.31982 73.818 6.31982 49.6174C6.31982 25.4169 25.9383 5.79846 50.1388 5.79846C74.3394 5.79846 93.9578 25.4169 93.9578 49.6174ZM11.3758 49.6174C11.3758 28.2068 28.7281 10.8545 50.1387 10.8545C71.5494 10.8545 88.9017 28.2068 88.9017 49.6174C88.9017 71.0281 71.5494 88.3804 50.1387 88.3804C28.7281 88.3804 11.3758 71.0281 11.3758 49.6174Z" stroke="#666666" stroke-width="3.43536" stroke-miterlimit="10"/>
<path fill-rule="evenodd" clip-rule="evenodd" d="M50.1387 61.5294C43.4041 61.5294 37.9503 56.0689 37.9503 49.341C37.9503 43.712 41.7659 38.9728 46.9501 37.5706C47.968 37.2942 49.0399 37.1459 50.1387 37.1459C56.8734 37.1459 62.3272 42.6064 62.3272 49.3343C62.3272 56.0622 56.8666 61.5227 50.1387 61.5227V61.5294ZM50.1388 54.2556C52.8158 54.2556 54.9859 52.0854 54.9859 49.4085C54.9859 46.7315 52.8158 44.5614 50.1388 44.5614C47.4618 44.5614 45.2917 46.7315 45.2917 49.4085C45.2917 52.0854 47.4618 54.2556 50.1388 54.2556Z" stroke="#666666" stroke-width="3.43536" stroke-miterlimit="10"/>
<path d="M54.9859 49.4085C54.9859 52.0854 52.8158 54.2556 50.1388 54.2556C47.4618 54.2556 45.2917 52.0854 45.2917 49.4085C45.2917 46.7315 47.4618 44.5614 50.1388 44.5614C52.8158 44.5614 54.9859 46.7315 54.9859 49.4085Z" stroke="#666666" stroke-width="3.43536" stroke-miterlimit="10"/>
<path d="M175.299 46.604H202.157" stroke="#383838" stroke-width="3.43536" stroke-miterlimit="10"/>
<path d="M175.299 53.0421H201.962" stroke="#383838" stroke-width="3.43536" stroke-miterlimit="10"/>
<path d="M171.504 40.7863L185.034 17.4543" stroke="#383838" stroke-width="3.43536" stroke-miterlimit="10"/>
<path d="M166.3 37.8538L178.866 14.0702" stroke="#383838" stroke-width="3.43536" stroke-miterlimit="10"/>
<path d="M161.035 37.2066L148.509 14.0702" stroke="#383838" stroke-width="3.43536" stroke-miterlimit="10"/>
<path d="M155.453 40.1323L141.997 17.4543" stroke="#383838" stroke-width="3.43536" stroke-miterlimit="10"/>
<path d="M151.577 45.6805L124.854 45.4041" stroke="#383838" stroke-width="3.43536" stroke-miterlimit="10"/>
<path d="M124.854 52.314H150.923" stroke="#383838" stroke-width="3.43536" stroke-miterlimit="10"/>
<path d="M155.453 59.1027L141.997 81.9492" stroke="#383838" stroke-width="3.43536" stroke-miterlimit="10"/>
<path d="M160.63 61.5565L147.599 85.03" stroke="#383838" stroke-width="3.43536" stroke-miterlimit="10"/>
<path d="M165.592 61.5565L178.023 85.5289" stroke="#383838" stroke-width="3.43536" stroke-miterlimit="10"/>
<path d="M171.079 58.8397L184.313 82.2526" stroke="#383838" stroke-width="3.43536" stroke-miterlimit="10"/>
<path fill-rule="evenodd" clip-rule="evenodd" d="M207.213 49.6174C207.213 73.818 187.595 93.4364 163.394 93.4364C139.194 93.4364 119.575 73.818 119.575 49.6174C119.575 25.4169 139.194 5.79846 163.394 5.79846C187.595 5.79846 207.213 25.4169 207.213 49.6174ZM163.394 88.3804C141.984 88.3804 124.631 71.0281 124.631 49.6174C124.631 28.2068 141.984 10.8545 163.394 10.8545C184.805 10.8545 202.157 28.2068 202.157 49.6174C202.157 71.0281 184.805 88.3804 163.394 88.3804Z" fill="#666666"/>
<path fill-rule="evenodd" clip-rule="evenodd" d="M175.306 49.6174C175.306 56.3521 169.846 61.8059 163.118 61.8059C157.489 61.8059 152.75 57.9902 151.348 52.8061C151.071 51.7882 150.923 50.7163 150.923 49.6174C150.923 42.8828 156.383 37.429 163.111 37.429C169.839 37.429 175.3 42.8895 175.3 49.6174H175.306ZM163.185 54.4645C165.862 54.4645 168.032 52.2944 168.032 49.6175C168.032 46.9405 165.862 44.7704 163.185 44.7704C160.508 44.7704 158.338 46.9405 158.338 49.6175C158.338 52.2944 160.508 54.4645 163.185 54.4645Z" fill="#666666"/>
<path d="M168.032 49.6175C168.032 52.2944 165.862 54.4645 163.185 54.4645C160.508 54.4645 158.338 52.2944 158.338 49.6175C158.338 46.9405 160.508 44.7704 163.185 44.7704C165.862 44.7704 168.032 46.9405 168.032 49.6175Z" fill="#383838"/>
<path fill-rule="evenodd" clip-rule="evenodd" d="M207.213 49.6174C207.213 73.818 187.595 93.4364 163.394 93.4364C139.194 93.4364 119.575 73.818 119.575 49.6174C119.575 25.4169 139.194 5.79846 163.394 5.79846C187.595 5.79846 207.213 25.4169 207.213 49.6174ZM163.394 88.3804C141.984 88.3804 124.631 71.0281 124.631 49.6174C124.631 28.2068 141.984 10.8545 163.394 10.8545C184.805 10.8545 202.157 28.2068 202.157 49.6174C202.157 71.0281 184.805 88.3804 163.394 88.3804Z" stroke="#666666" stroke-width="3.43536" stroke-miterlimit="10"/>
<path fill-rule="evenodd" clip-rule="evenodd" d="M175.306 49.6174C175.306 56.3521 169.846 61.8059 163.118 61.8059C157.489 61.8059 152.75 57.9902 151.348 52.8061C151.071 51.7882 150.923 50.7163 150.923 49.6174C150.923 42.8828 156.383 37.429 163.111 37.429C169.839 37.429 175.3 42.8895 175.3 49.6174H175.306ZM163.185 54.4645C165.862 54.4645 168.032 52.2944 168.032 49.6175C168.032 46.9405 165.862 44.7704 163.185 44.7704C160.508 44.7704 158.338 46.9405 158.338 49.6175C158.338 52.2944 160.508 54.4645 163.185 54.4645Z" stroke="#666666" stroke-width="3.43536" stroke-miterlimit="10"/>
<path d="M168.032 49.6175C168.032 52.2944 165.862 54.4645 163.185 54.4645C160.508 54.4645 158.338 52.2944 158.338 49.6175C158.338 46.9405 160.508 44.7704 163.185 44.7704C165.862 44.7704 168.032 46.9405 168.032 49.6175Z" stroke="#666666" stroke-width="3.43536" stroke-miterlimit="10"/>
<path d="M276.96 61.5295V88.3805" stroke="#383838" stroke-width="3.43536" stroke-miterlimit="10"/>
<path d="M270.528 61.5295V88.1917" stroke="#383838" stroke-width="3.43536" stroke-miterlimit="10"/>
<path d="M282.784 57.7341L306.116 71.2573" stroke="#383838" stroke-width="3.43536" stroke-miterlimit="10"/>
<path d="M285.717 52.5298L309.5 65.0957" stroke="#383838" stroke-width="3.43536" stroke-miterlimit="10"/>
<path d="M286.364 47.258L309.5 34.7325" stroke="#383838" stroke-width="3.43536" stroke-miterlimit="10"/>
<path d="M283.432 41.6761L306.116 28.2271" stroke="#383838" stroke-width="3.43536" stroke-miterlimit="10"/>
<path d="M277.89 37.7998L278.16 11.0837" stroke="#383838" stroke-width="3.43536" stroke-miterlimit="10"/>
<path d="M271.257 11.0837V37.1459" stroke="#383838" stroke-width="3.43536" stroke-miterlimit="10"/>
<path d="M264.468 41.6761L241.621 28.2271" stroke="#383838" stroke-width="3.43536" stroke-miterlimit="10"/>
<path d="M262.014 46.8602L238.541 33.8291" stroke="#383838" stroke-width="3.43536" stroke-miterlimit="10"/>
<path d="M262.014 51.8219L238.042 64.2463" stroke="#383838" stroke-width="3.43536" stroke-miterlimit="10"/>
<path d="M264.724 57.3026L241.311 70.5427" stroke="#383838" stroke-width="3.43536" stroke-miterlimit="10"/>
<path fill-rule="evenodd" clip-rule="evenodd" d="M317.772 49.6174C317.772 73.818 298.153 93.4364 273.953 93.4364C249.752 93.4364 230.134 73.818 230.134 49.6174C230.134 25.4169 249.752 5.79846 273.953 5.79846C298.153 5.79846 317.772 25.4169 317.772 49.6174ZM235.19 49.6174C235.19 28.2068 252.542 10.8545 273.953 10.8545C295.363 10.8545 312.716 28.2068 312.716 49.6174C312.716 71.0281 295.363 88.3804 273.953 88.3804C252.542 88.3804 235.19 71.0281 235.19 49.6174Z" fill="#666666"/>
<path fill-rule="evenodd" clip-rule="evenodd" d="M273.953 61.5294C267.218 61.5294 261.764 56.0689 261.764 49.341C261.764 43.712 265.58 38.9728 270.764 37.5706C271.782 37.2942 272.854 37.1459 273.953 37.1459C280.687 37.1459 286.141 42.6064 286.141 49.3343C286.141 56.0622 280.681 61.5227 273.953 61.5227V61.5294ZM273.953 54.2556C276.63 54.2556 278.8 52.0854 278.8 49.4085C278.8 46.7315 276.63 44.5614 273.953 44.5614C271.276 44.5614 269.106 46.7315 269.106 49.4085C269.106 52.0854 271.276 54.2556 273.953 54.2556Z" fill="#666666"/>
<path d="M278.8 49.4085C278.8 52.0854 276.63 54.2556 273.953 54.2556C271.276 54.2556 269.106 52.0854 269.106 49.4085C269.106 46.7315 271.276 44.5614 273.953 44.5614C276.63 44.5614 278.8 46.7315 278.8 49.4085Z" fill="#383838"/>
<path fill-rule="evenodd" clip-rule="evenodd" d="M317.772 49.6174C317.772 73.818 298.153 93.4364 273.953 93.4364C249.752 93.4364 230.134 73.818 230.134 49.6174C230.134 25.4169 249.752 5.79846 273.953 5.79846C298.153 5.79846 317.772 25.4169 317.772 49.6174ZM235.19 49.6174C235.19 28.2068 252.542 10.8545 273.953 10.8545C295.363 10.8545 312.716 28.2068 312.716 49.6174C312.716 71.0281 295.363 88.3804 273.953 88.3804C252.542 88.3804 235.19 71.0281 235.19 49.6174Z" stroke="#666666" stroke-width="3.43536" stroke-miterlimit="10"/>
<path fill-rule="evenodd" clip-rule="evenodd" d="M273.953 61.5294C267.218 61.5294 261.764 56.0689 261.764 49.341C261.764 43.712 265.58 38.9728 270.764 37.5706C271.782 37.2942 272.854 37.1459 273.953 37.1459C280.687 37.1459 286.141 42.6064 286.141 49.3343C286.141 56.0622 280.681 61.5227 273.953 61.5227V61.5294ZM273.953 54.2556C276.63 54.2556 278.8 52.0854 278.8 49.4085C278.8 46.7315 276.63 44.5614 273.953 44.5614C271.276 44.5614 269.106 46.7315 269.106 49.4085C269.106 52.0854 271.276 54.2556 273.953 54.2556Z" stroke="#666666" stroke-width="3.43536" stroke-miterlimit="10"/>
<path d="M278.8 49.4085C278.8 52.0854 276.63 54.2556 273.953 54.2556C271.276 54.2556 269.106 52.0854 269.106 49.4085C269.106 46.7315 271.276 44.5614 273.953 44.5614C276.63 44.5614 278.8 46.7315 278.8 49.4085Z" stroke="#666666" stroke-width="3.43536" stroke-miterlimit="10"/>
<path d="M398.439 46.604H425.297" stroke="#383838" stroke-width="3.43536" stroke-miterlimit="10"/>
<path d="M398.439 53.0421H425.101" stroke="#383838" stroke-width="3.43536" stroke-miterlimit="10"/>
<path d="M394.644 40.7863L408.174 17.4543" stroke="#383838" stroke-width="3.43536" stroke-miterlimit="10"/>
<path d="M389.439 37.8538L402.005 14.0702" stroke="#383838" stroke-width="3.43536" stroke-miterlimit="10"/>
<path d="M384.174 37.2066L371.649 14.0702" stroke="#383838" stroke-width="3.43536" stroke-miterlimit="10"/>
<path d="M378.592 40.1323L365.137 17.4543" stroke="#383838" stroke-width="3.43536" stroke-miterlimit="10"/>
<path d="M374.716 45.6805L347.993 45.4041" stroke="#383838" stroke-width="3.43536" stroke-miterlimit="10"/>
<path d="M347.993 52.314H374.062" stroke="#383838" stroke-width="3.43536" stroke-miterlimit="10"/>
<path d="M378.592 59.1027L365.137 81.9492" stroke="#383838" stroke-width="3.43536" stroke-miterlimit="10"/>
<path d="M383.77 61.5565L370.739 85.03" stroke="#383838" stroke-width="3.43536" stroke-miterlimit="10"/>
<path d="M388.731 61.5565L401.163 85.5289" stroke="#383838" stroke-width="3.43536" stroke-miterlimit="10"/>
<path d="M394.219 58.8397L407.452 82.2526" stroke="#383838" stroke-width="3.43536" stroke-miterlimit="10"/>
<path fill-rule="evenodd" clip-rule="evenodd" d="M430.353 49.6174C430.353 73.818 410.735 93.4364 386.534 93.4364C362.334 93.4364 342.715 73.818 342.715 49.6174C342.715 25.4169 362.334 5.79846 386.534 5.79846C410.735 5.79846 430.353 25.4169 430.353 49.6174ZM386.534 88.3804C365.123 88.3804 347.771 71.0281 347.771 49.6174C347.771 28.2068 365.123 10.8545 386.534 10.8545C407.945 10.8545 425.297 28.2068 425.297 49.6174C425.297 71.0281 407.945 88.3804 386.534 88.3804Z" fill="#666666"/>
<path fill-rule="evenodd" clip-rule="evenodd" d="M398.446 49.6174C398.446 56.3521 392.986 61.8059 386.258 61.8059C380.629 61.8059 375.889 57.9902 374.487 52.8061C374.211 51.7882 374.063 50.7163 374.063 49.6174C374.063 42.8828 379.523 37.429 386.251 37.429C392.979 37.429 398.439 42.8895 398.439 49.6174H398.446ZM386.325 54.4645C389.002 54.4645 391.172 52.2944 391.172 49.6175C391.172 46.9405 389.002 44.7704 386.325 44.7704C383.648 44.7704 381.478 46.9405 381.478 49.6175C381.478 52.2944 383.648 54.4645 386.325 54.4645Z" fill="#666666"/>
<path d="M391.172 49.6175C391.172 52.2944 389.002 54.4645 386.325 54.4645C383.648 54.4645 381.478 52.2944 381.478 49.6175C381.478 46.9405 383.648 44.7704 386.325 44.7704C389.002 44.7704 391.172 46.9405 391.172 49.6175Z" fill="#383838"/>
<path fill-rule="evenodd" clip-rule="evenodd" d="M430.353 49.6174C430.353 73.818 410.735 93.4364 386.534 93.4364C362.334 93.4364 342.715 73.818 342.715 49.6174C342.715 25.4169 362.334 5.79846 386.534 5.79846C410.735 5.79846 430.353 25.4169 430.353 49.6174ZM386.534 88.3804C365.123 88.3804 347.771 71.0281 347.771 49.6174C347.771 28.2068 365.123 10.8545 386.534 10.8545C407.945 10.8545 425.297 28.2068 425.297 49.6174C425.297 71.0281 407.945 88.3804 386.534 88.3804Z" stroke="#666666" stroke-width="3.43536" stroke-miterlimit="10"/>
<path fill-rule="evenodd" clip-rule="evenodd" d="M398.446 49.6174C398.446 56.3521 392.986 61.8059 386.258 61.8059C380.629 61.8059 375.889 57.9902 374.487 52.8061C374.211 51.7882 374.063 50.7163 374.063 49.6174C374.063 42.8828 379.523 37.429 386.251 37.429C392.979 37.429 398.439 42.8895 398.439 49.6174H398.446ZM386.325 54.4645C389.002 54.4645 391.172 52.2944 391.172 49.6175C391.172 46.9405 389.002 44.7704 386.325 44.7704C383.648 44.7704 381.478 46.9405 381.478 49.6175C381.478 52.2944 383.648 54.4645 386.325 54.4645Z" stroke="#666666" stroke-width="3.43536" stroke-miterlimit="10"/>
<path d="M391.172 49.6175C391.172 52.2944 389.002 54.4645 386.325 54.4645C383.648 54.4645 381.478 52.2944 381.478 49.6175C381.478 46.9405 383.648 44.7704 386.325 44.7704C389.002 44.7704 391.172 46.9405 391.172 49.6175Z" stroke="#666666" stroke-width="3.43536" stroke-miterlimit="10"/>
</svg>
