<svg width="130" height="131" viewBox="0 0 130 131" fill="none" xmlns="http://www.w3.org/2000/svg">
<ellipse cx="64.9884" cy="65.2156" rx="64.9884" ry="65.2156" fill="#CCCCCC"/>
<circle cx="65.0173" cy="65.1084" r="62.9362" fill="url(#paint0_linear_229_2859)"/>
<mask id="mask0_229_2859" style="mask-type:alpha" maskUnits="userSpaceOnUse" x="4" y="4" width="122" height="122">
<path d="M125.566 66.2956C125.553 66.9451 125.53 67.5944 125.496 68.2432L113.4 67.6162C113.427 67.0972 113.446 66.5777 113.456 66.0581L125.566 66.2956Z" fill="#D9D9D9"/>
<path d="M125.327 70.6121C125.268 71.2591 125.198 71.9051 125.119 72.5498L113.098 71.0615C113.162 70.5457 113.217 70.0289 113.265 69.5113L125.327 70.6121Z" fill="#D9D9D9"/>
<path d="M124.78 74.9006C124.675 75.5417 124.56 76.1811 124.434 76.8185L112.551 74.4765C112.651 73.9665 112.744 73.455 112.828 72.9421L124.78 74.9006Z" fill="#D9D9D9"/>
<path d="M123.93 79.1392C123.779 79.7712 123.618 80.4007 123.448 81.0276L111.761 77.8437C111.898 77.3422 112.026 76.8386 112.147 76.333L123.93 79.1392Z" fill="#D9D9D9"/>
<path d="M122.779 83.3064C122.584 83.9261 122.378 84.5425 122.163 85.1556L110.734 81.1461C110.906 80.6557 111.07 80.1625 111.226 79.6668L122.779 83.3064Z" fill="#D9D9D9"/>
<path d="M121.333 87.3807C121.094 87.9848 120.846 88.5851 120.587 89.1812L109.473 84.3666C109.68 83.8897 109.879 83.4095 110.07 82.9262L121.333 87.3807Z" fill="#D9D9D9"/>
<path d="M119.6 91.3416C119.319 91.9271 119.028 92.5081 118.728 93.0843L107.986 87.4891C108.226 87.0281 108.458 86.5633 108.683 86.0949L119.6 91.3416Z" fill="#D9D9D9"/>
<path d="M117.59 95.1688C117.268 95.7328 116.936 96.2915 116.596 96.8449L106.28 90.4975C106.552 90.0549 106.817 89.6079 107.075 89.1567L117.59 95.1688Z" fill="#D9D9D9"/>
<path d="M115.311 98.8427C114.949 99.3822 114.579 99.9159 114.2 100.444L104.363 93.3764C104.666 92.9543 104.962 92.5274 105.252 92.0958L115.311 98.8427Z" fill="#D9D9D9"/>
<path d="M112.776 102.345C112.377 102.857 111.969 103.363 111.554 103.862L102.246 96.1116C102.579 95.7122 102.905 95.3075 103.224 94.8976L112.776 102.345Z" fill="#D9D9D9"/>
<path d="M109.999 105.657C109.564 106.14 109.121 106.615 108.671 107.084L99.9396 98.6885C100.3 98.3139 100.654 97.9335 101.002 97.5474L109.999 105.657Z" fill="#D9D9D9"/>
<path d="M106.992 108.763C106.524 109.213 106.048 109.656 105.566 110.091L97.4559 101.094C97.8419 100.746 98.2223 100.392 98.597 100.032L106.992 108.763Z" fill="#D9D9D9"/>
<path d="M103.771 111.646C103.271 112.062 102.766 112.47 102.253 112.869L94.8059 103.317C95.2157 102.997 95.6205 102.671 96.0198 102.339L103.771 111.646Z" fill="#D9D9D9"/>
<path d="M100.351 114.292C99.8238 114.671 99.2901 115.042 98.7506 115.404L92.0036 105.345C92.4353 105.055 92.8622 104.759 93.2843 104.455L100.351 114.292Z" fill="#D9D9D9"/>
<path d="M96.7524 116.688C96.1991 117.028 95.6403 117.36 95.0764 117.682L89.0642 107.167C89.5154 106.909 89.9624 106.644 90.4051 106.372L96.7524 116.688Z" fill="#D9D9D9"/>
<path d="M92.992 118.82C92.4158 119.12 91.8348 119.411 91.2493 119.693L86.0026 108.776C86.471 108.551 86.9358 108.318 87.3968 108.078L92.992 118.82Z" fill="#D9D9D9"/>
<path d="M89.0887 120.679C88.4926 120.938 87.8923 121.186 87.2882 121.425L82.8337 110.162C83.317 109.971 83.7972 109.772 84.2741 109.565L89.0887 120.679Z" fill="#D9D9D9"/>
<path d="M85.0631 122.255C84.4501 122.47 83.8336 122.675 83.2139 122.871L79.5743 111.318C80.07 111.162 80.5632 110.998 81.0536 110.826L85.0631 122.255Z" fill="#D9D9D9"/>
<path d="M80.9349 123.54C80.3081 123.711 79.6786 123.871 79.0466 124.022L76.2404 112.239C76.746 112.119 77.2496 111.99 77.751 111.853L80.9349 123.54Z" fill="#D9D9D9"/>
<path d="M76.726 124.526C76.0886 124.652 75.4492 124.767 74.8081 124.872L72.8496 112.92C73.3625 112.836 73.874 112.743 74.3839 112.643L76.726 124.526Z" fill="#D9D9D9"/>
<path d="M72.4572 125.211C71.8125 125.29 71.1665 125.36 70.5195 125.419L69.4187 113.357C69.9363 113.31 70.4531 113.254 70.9689 113.19L72.4572 125.211Z" fill="#D9D9D9"/>
<path d="M68.1515 125.588C67.5027 125.622 66.8534 125.645 66.2039 125.658L65.9664 113.548C66.486 113.538 67.0054 113.519 67.5245 113.492L68.1515 125.588Z" fill="#D9D9D9"/>
<path d="M63.8279 125.658C63.1784 125.645 62.5291 125.622 61.8803 125.588L62.5073 113.492C63.0264 113.519 63.5458 113.538 64.0654 113.548L63.8279 125.658Z" fill="#D9D9D9"/>
<path d="M59.5122 125.419C58.8652 125.36 58.2192 125.29 57.5745 125.21L59.0628 113.19C59.5786 113.254 60.0954 113.309 60.613 113.357L59.5122 125.419Z" fill="#D9D9D9"/>
<path d="M55.223 124.872C54.5819 124.767 53.9425 124.652 53.3051 124.526L55.6472 112.643C56.1571 112.743 56.6686 112.836 57.1815 112.92L55.223 124.872Z" fill="#D9D9D9"/>
<path d="M50.9847 124.022C50.3527 123.871 49.7232 123.71 49.0963 123.54L52.2802 111.853C52.7817 111.99 53.2853 112.119 53.7909 112.239L50.9847 124.022Z" fill="#D9D9D9"/>
<path d="M46.8183 122.871C46.1987 122.675 45.5822 122.47 44.9692 122.255L48.9786 110.826C49.4691 110.998 49.9622 111.162 50.458 111.318L46.8183 122.871Z" fill="#D9D9D9"/>
<path d="M42.7438 121.425C42.1397 121.186 41.5394 120.938 40.9433 120.679L45.7579 109.565C46.2348 109.772 46.715 109.971 47.1983 110.162L42.7438 121.425Z" fill="#D9D9D9"/>
<path d="M38.7827 119.693C38.1971 119.411 37.6162 119.121 37.04 118.82L42.6352 108.078C43.0961 108.318 43.5609 108.551 44.0294 108.776L38.7827 119.693Z" fill="#D9D9D9"/>
<path d="M34.9556 117.682C34.3916 117.36 33.8329 117.028 33.2795 116.688L39.6269 106.372C40.0695 106.644 40.5165 106.91 40.9677 107.167L34.9556 117.682Z" fill="#D9D9D9"/>
<path d="M31.2813 115.404C30.7418 115.042 30.2081 114.671 29.6805 114.292L36.7476 104.455C37.1697 104.759 37.5966 105.055 38.0283 105.345L31.2813 115.404Z" fill="#D9D9D9"/>
<path d="M27.7791 112.869C27.2667 112.469 26.7608 112.062 26.2616 111.646L34.0124 102.338C34.4118 102.671 34.8165 102.997 35.2264 103.317L27.7791 112.869Z" fill="#D9D9D9"/>
<path d="M24.467 110.091C23.9845 109.656 23.509 109.213 23.0407 108.763L31.4357 100.032C31.8104 100.392 32.1908 100.746 32.5768 101.094L24.467 110.091Z" fill="#D9D9D9"/>
<path d="M21.3615 107.084C20.9113 106.615 20.4685 106.14 20.0335 105.657L29.0301 97.5474C29.3781 97.9335 29.7323 98.3139 30.0925 98.6885L21.3615 107.084Z" fill="#D9D9D9"/>
<path d="M18.4785 103.862C18.0627 103.363 17.6551 102.857 17.2556 102.345L26.8078 94.8974C27.1273 95.3073 27.4535 95.712 27.7861 96.1114L18.4785 103.862Z" fill="#D9D9D9"/>
<path d="M15.8315 100.444C15.4525 99.9161 15.0819 99.3824 14.72 98.8428L24.7792 92.0959C25.0687 92.5276 25.3651 92.9545 25.6683 93.3766L15.8315 100.444Z" fill="#D9D9D9"/>
<path d="M13.4361 96.8447C13.0956 96.2914 12.7641 95.7326 12.4416 95.1686L22.9565 89.1565C23.2144 89.6077 23.4797 90.0547 23.752 90.4974L13.4361 96.8447Z" fill="#D9D9D9"/>
<path d="M11.3037 93.0844C11.0036 92.5082 10.7127 91.9272 10.4313 91.3417L21.3482 86.095C21.5734 86.5634 21.806 87.0282 22.0461 87.4892L11.3037 93.0844Z" fill="#D9D9D9"/>
<path d="M9.44476 89.1812C9.18652 88.5851 8.93789 87.9848 8.69896 87.3807L19.9624 82.9262C20.1535 83.4095 20.3524 83.8897 20.559 84.3666L9.44476 89.1812Z" fill="#D9D9D9"/>
<path d="M7.86881 85.1555C7.65376 84.5425 7.44858 83.926 7.25336 83.3064L18.8058 79.6667C18.962 80.1624 19.1262 80.6556 19.2982 81.146L7.86881 85.1555Z" fill="#D9D9D9"/>
<path d="M6.58452 81.0276C6.41375 80.4007 6.25307 79.7712 6.10255 79.1392L17.8852 76.333C18.0057 76.8386 18.1342 77.3422 18.2708 77.8437L6.58452 81.0276Z" fill="#D9D9D9"/>
<path d="M5.59809 76.8185C5.47247 76.1811 5.35711 75.5417 5.25206 74.9006L17.2049 72.9421C17.289 73.455 17.3813 73.9665 17.4818 74.4764L5.59809 76.8185Z" fill="#D9D9D9"/>
<path d="M4.91371 72.55C4.83388 71.9052 4.76443 71.2592 4.70538 70.6123L16.7675 69.5115C16.8148 70.029 16.8703 70.5458 16.9342 71.0616L4.91371 72.55Z" fill="#D9D9D9"/>
<path d="M4.53598 68.2433C4.50235 67.5945 4.47916 66.9452 4.46642 66.2957L16.5763 66.0582C16.5865 66.5778 16.6051 67.0972 16.632 67.6163L4.53598 68.2433Z" fill="#D9D9D9"/>
<path d="M4.4665 63.9207C4.47924 63.2712 4.50243 62.6219 4.53606 61.9731L16.6321 62.6001C16.6052 63.1191 16.5866 63.6386 16.5764 64.1582L4.4665 63.9207Z" fill="#D9D9D9"/>
<path d="M4.7056 59.6042C4.76465 58.9572 4.8341 58.3112 4.91393 57.6665L16.9344 59.1548C16.8705 59.6706 16.815 60.1874 16.7677 60.705L4.7056 59.6042Z" fill="#D9D9D9"/>
<path d="M5.25157 55.3157C5.35662 54.6746 5.47198 54.0352 5.5976 53.3978L17.4813 55.7399C17.3808 56.2498 17.2885 56.7613 17.2044 57.2742L5.25157 55.3157Z" fill="#D9D9D9"/>
<path d="M6.10238 51.0771C6.2529 50.4451 6.41358 49.8156 6.58435 49.1888L18.2707 52.3726C18.134 52.8741 18.0055 53.3777 17.8851 53.8833L6.10238 51.0771Z" fill="#D9D9D9"/>
<path d="M7.25374 46.91C7.44896 46.2904 7.65414 45.6739 7.8692 45.0608L19.2986 49.0703C19.1265 49.5607 18.9624 50.0539 18.8062 50.5496L7.25374 46.91Z" fill="#D9D9D9"/>
<path d="M8.69911 42.8356C8.93804 42.2315 9.18667 41.6312 9.44491 41.0351L20.5592 45.8497C20.3526 46.3266 20.1537 46.8068 19.9625 47.2901L8.69911 42.8356Z" fill="#D9D9D9"/>
<path d="M10.4319 38.8747C10.7133 38.2892 11.0041 37.7082 11.3042 37.132L22.0467 42.7272C21.8066 43.1882 21.5739 43.653 21.3488 44.1214L10.4319 38.8747Z" fill="#D9D9D9"/>
<path d="M12.442 35.0476C12.7644 34.4837 13.096 33.9249 13.4364 33.3716L23.7523 39.7189C23.48 40.1616 23.2148 40.6086 22.9568 41.0598L12.442 35.0476Z" fill="#D9D9D9"/>
<path d="M14.7202 31.3736C15.0821 30.8341 15.4527 30.3004 15.8317 29.7728L25.6685 36.8399C25.3653 37.262 25.0689 37.6889 24.7794 38.1205L14.7202 31.3736Z" fill="#D9D9D9"/>
<path d="M17.2551 27.8715C17.6545 27.3591 18.0622 26.8532 18.4779 26.354L27.7855 34.1048C27.453 34.5042 27.1268 34.9089 26.8073 35.3188L17.2551 27.8715Z" fill="#D9D9D9"/>
<path d="M20.0327 24.5591C20.4677 24.0765 20.9104 23.601 21.3607 23.1327L30.0916 31.5278C29.7314 31.9024 29.3772 32.2828 29.0292 32.6689L20.0327 24.5591Z" fill="#D9D9D9"/>
<path d="M23.0402 21.4536C23.5085 21.0033 23.984 20.5606 24.4666 20.1256L32.5764 29.1221C32.1903 29.4701 31.8099 29.8243 31.4353 30.1845L23.0402 21.4536Z" fill="#D9D9D9"/>
<path d="M26.2618 18.5701C26.761 18.1544 27.2669 17.7467 27.7793 17.3473L35.2266 26.8995C34.8167 27.219 34.412 27.5452 34.0126 27.8777L26.2618 18.5701Z" fill="#D9D9D9"/>
<path d="M29.6808 15.924C30.2084 15.545 30.7421 15.1744 31.2817 14.8126L38.0286 24.8717C37.5969 25.1612 37.17 25.4576 36.7479 25.7609L29.6808 15.924Z" fill="#D9D9D9"/>
<path d="M33.2788 13.5286C33.8322 13.1882 34.3909 12.8566 34.9549 12.5342L40.967 23.049C40.5158 23.307 40.0688 23.5722 39.6262 23.8445L33.2788 13.5286Z" fill="#D9D9D9"/>
<path d="M37.0402 11.396C37.6164 11.0959 38.1974 10.805 38.7829 10.5236L44.0296 21.4405C43.5612 21.6657 43.0964 21.8983 42.6354 22.1384L37.0402 11.396Z" fill="#D9D9D9"/>
<path d="M40.9435 9.53705C41.5397 9.2788 42.1399 9.03017 42.744 8.79124L47.1986 20.0546C46.7152 20.2458 46.235 20.4447 45.7581 20.6513L40.9435 9.53705Z" fill="#D9D9D9"/>
<path d="M44.9682 7.9611C45.5812 7.74604 46.1977 7.54086 46.8173 7.34564L50.4569 18.8981C49.9612 19.0543 49.4681 19.2184 48.9776 19.3905L44.9682 7.9611Z" fill="#D9D9D9"/>
<path d="M49.0963 6.67669C49.7232 6.50591 50.3527 6.34523 50.9847 6.19472L53.7909 17.9774C53.2853 18.0978 52.7817 18.2264 52.2802 18.363L49.0963 6.67669Z" fill="#D9D9D9"/>
<path d="M53.3053 5.68989C53.9427 5.56427 54.5821 5.44891 55.2232 5.34386L57.1817 17.2967C56.6688 17.3808 56.1573 17.4731 55.6474 17.5736L53.3053 5.68989Z" fill="#D9D9D9"/>
<path d="M57.574 5.00575C58.2188 4.92592 58.8648 4.85647 59.5118 4.79743L60.6126 16.8596C60.095 16.9068 59.5782 16.9624 59.0624 17.0262L57.574 5.00575Z" fill="#D9D9D9"/>
<path d="M61.8807 4.62802C62.5295 4.59439 63.1788 4.5712 63.8284 4.55846L64.0659 16.6684C63.5462 16.6786 63.0268 16.6971 62.5077 16.724L61.8807 4.62802Z" fill="#D9D9D9"/>
<path d="M66.2033 4.55854C66.8529 4.57128 67.5022 4.59447 68.151 4.6281L67.5239 16.7241C67.0049 16.6972 66.4855 16.6787 65.9658 16.6685L66.2033 4.55854Z" fill="#D9D9D9"/>
<path d="M70.5198 4.79752C71.1668 4.85657 71.8128 4.92602 72.4575 5.00585L70.9692 17.0263C70.4534 16.9625 69.9366 16.9069 69.419 16.8597L70.5198 4.79752Z" fill="#D9D9D9"/>
<path d="M74.8082 5.34386C75.4493 5.44891 76.0887 5.56426 76.7261 5.68989L74.384 17.5735C73.8741 17.4731 73.3626 17.3808 72.8497 17.2967L74.8082 5.34386Z" fill="#D9D9D9"/>
<path d="M79.0466 6.19467C79.6786 6.34518 80.3081 6.50586 80.9349 6.67664L77.751 18.3629C77.2496 18.2263 76.7459 18.0978 76.2403 17.9774L79.0466 6.19467Z" fill="#D9D9D9"/>
<path d="M83.2139 7.34578C83.8336 7.541 84.45 7.74618 85.0631 7.96124L81.0536 19.3906C80.5632 19.2186 80.07 19.0544 79.5743 18.8983L83.2139 7.34578Z" fill="#D9D9D9"/>
<path d="M87.2884 8.79115C87.8925 9.03008 88.4928 9.27871 89.0889 9.53695L84.2743 20.6512C83.7974 20.4446 83.3172 20.2457 82.8339 20.0546L87.2884 8.79115Z" fill="#D9D9D9"/>
<path d="M91.2493 10.5237C91.8348 10.8051 92.4158 11.0959 92.992 11.396L87.3968 22.1385C86.9358 21.8984 86.4711 21.6657 86.0026 21.4406L91.2493 10.5237Z" fill="#D9D9D9"/>
<path d="M95.0766 12.5341C95.6406 12.8566 96.1994 13.1881 96.7527 13.5286L90.4054 23.8445C89.9627 23.5721 89.5157 23.3069 89.0645 23.0489L95.0766 12.5341Z" fill="#D9D9D9"/>
<path d="M98.7506 14.8125C99.2902 15.1744 99.8239 15.545 100.351 15.924L93.2844 25.7608C92.8623 25.4576 92.4354 25.1612 92.0037 24.8716L98.7506 14.8125Z" fill="#D9D9D9"/>
<path d="M102.252 17.3474C102.765 17.7468 103.27 18.1545 103.77 18.5702L96.0188 27.8778C95.6194 27.5452 95.2147 27.2191 94.8048 26.8995L102.252 17.3474Z" fill="#D9D9D9"/>
<path d="M105.565 20.1255C106.047 20.5604 106.523 21.0032 106.991 21.4535L98.5962 30.1844C98.2216 29.8242 97.8412 29.47 97.4551 29.122L105.565 20.1255Z" fill="#D9D9D9"/>
<path d="M108.671 23.1327C109.121 23.601 109.564 24.0765 109.999 24.5591L101.002 32.6689C100.654 32.2828 100.3 31.9024 99.94 31.5278L108.671 23.1327Z" fill="#D9D9D9"/>
<path d="M111.554 26.3541C111.969 26.8533 112.377 27.3592 112.777 27.8716L103.224 35.3189C102.905 34.909 102.579 34.5043 102.246 34.1049L111.554 26.3541Z" fill="#D9D9D9"/>
<path d="M114.2 29.7726C114.579 30.3002 114.949 30.8339 115.311 31.3735L105.252 38.1204C104.963 37.6887 104.666 37.2618 104.363 36.8397L114.2 29.7726Z" fill="#D9D9D9"/>
<path d="M116.596 33.3716C116.937 33.9249 117.268 34.4837 117.591 35.0477L107.076 41.0598C106.818 40.6086 106.553 40.1616 106.28 39.7189L116.596 33.3716Z" fill="#D9D9D9"/>
<path d="M118.729 37.132C119.029 37.7082 119.32 38.2892 119.601 38.8747L108.684 44.1214C108.459 43.653 108.226 43.1882 107.986 42.7272L118.729 37.132Z" fill="#D9D9D9"/>
<path d="M120.587 41.0351C120.845 41.6312 121.094 42.2315 121.333 42.8356L110.069 47.2901C109.878 46.8068 109.679 46.3266 109.472 45.8497L120.587 41.0351Z" fill="#D9D9D9"/>
<path d="M122.163 45.0609C122.378 45.674 122.583 46.2904 122.779 46.9101L111.226 50.5497C111.07 50.054 110.906 49.5608 110.734 49.0704L122.163 45.0609Z" fill="#D9D9D9"/>
<path d="M123.447 49.1887C123.618 49.8156 123.779 50.4451 123.929 51.0771L112.147 53.8833C112.026 53.3777 111.898 52.8741 111.761 52.3726L123.447 49.1887Z" fill="#D9D9D9"/>
<path d="M124.434 53.3978C124.56 54.0352 124.675 54.6746 124.78 55.3157L112.827 57.2742C112.743 56.7613 112.651 56.2498 112.55 55.7399L124.434 53.3978Z" fill="#D9D9D9"/>
<path d="M125.118 57.6665C125.198 58.3112 125.268 58.9572 125.327 59.6042L113.264 60.705C113.217 60.1874 113.162 59.6706 113.098 59.1548L125.118 57.6665Z" fill="#D9D9D9"/>
<path d="M125.496 61.973C125.53 62.6218 125.553 63.2711 125.566 63.9206L113.456 64.1581C113.445 63.6385 113.427 63.1191 113.4 62.6L125.496 61.973Z" fill="#D9D9D9"/>
</mask>
<g mask="url(#mask0_229_2859)">
<rect x="3.26733" y="3.35938" width="124.685" height="124.685" fill="url(#paint1_linear_229_2859)"/>
</g>
<circle cx="65.1615" cy="65.0619" r="45.5199" fill="url(#paint2_linear_229_2859)"/>
<path d="M28.2764 52.7178L65.088 64.9883" stroke="#047EFD" stroke-width="3.18125" stroke-linecap="round"/>
<defs>
<linearGradient id="paint0_linear_229_2859" x1="80.6675" y1="21.1327" x2="28.4042" y2="113.162" gradientUnits="userSpaceOnUse">
<stop stop-color="white"/>
<stop offset="1" stop-color="#949494"/>
</linearGradient>
<linearGradient id="paint1_linear_229_2859" x1="106.182" y1="12.8592" x2="31.5843" y2="119.524" gradientUnits="userSpaceOnUse">
<stop stop-color="#EEEEEE"/>
<stop offset="1" stop-color="#454545"/>
</linearGradient>
<linearGradient id="paint2_linear_229_2859" x1="36.956" y1="101.299" x2="87.4015" y2="28.8121" gradientUnits="userSpaceOnUse">
<stop stop-color="#EEEEEE"/>
<stop offset="1" stop-color="#E1E1E1"/>
</linearGradient>
</defs>
</svg>
