<svg width="127" height="149" viewBox="0 0 127 149" fill="none" xmlns="http://www.w3.org/2000/svg">
<path d="M124.592 2L2.28258 24.6377C2.11774 24.6691 2 24.8104 2 24.9752V29.7712C2 29.9831 2.19624 30.148 2.40817 30.1087L124.718 8.25598C124.882 8.22458 125 8.08329 125 7.91845V2.34537C125 2.12559 124.804 1.9686 124.592 2.00785V2Z" stroke="white" stroke-width="2.35482" stroke-miterlimit="10"/>
<path d="M110.761 124.765H14.2373" stroke="white" stroke-width="2.35482" stroke-miterlimit="10"/>
<path d="M110.761 136.06H14.2373" stroke="white" stroke-width="2.35482" stroke-miterlimit="10"/>
<path d="M110.761 123.98V103.65" stroke="white" stroke-width="2.35482" stroke-miterlimit="10"/>
<path d="M14.2373 103.65V123.98" stroke="white" stroke-width="2.35482" stroke-miterlimit="10"/>
<path d="M14.2373 113.454H110.761" stroke="white" stroke-width="2.35482" stroke-miterlimit="10"/>
<path d="M14.2373 102.48H110.761" stroke="white" stroke-width="2.35482" stroke-miterlimit="10"/>
<path d="M14.2373 147.834V139.749" stroke="white" stroke-width="2.35482" stroke-miterlimit="10"/>
<path d="M110.761 139.749V147.834" stroke="white" stroke-width="2.35482" stroke-miterlimit="10"/>
<path d="M110.761 111.9V92.3624" stroke="white" stroke-width="2.35482" stroke-miterlimit="10"/>
<path d="M14.2373 92.3624V111.9" stroke="white" stroke-width="2.35482" stroke-miterlimit="10"/>
<path d="M14.2373 136.861V128.619" stroke="white" stroke-width="2.35482" stroke-miterlimit="10"/>
<path d="M110.761 128.619V136.861" stroke="white" stroke-width="2.35482" stroke-miterlimit="10"/>
<path d="M110.761 92.3624V32.9424H14.2451V92.3624M70.0544 46.6631C70.0544 45.7997 70.7608 45.0933 71.6243 45.0933H100.667C101.531 45.0933 102.237 45.7997 102.237 46.6631V85.9102C102.237 86.7736 101.531 87.4801 100.667 87.4801H71.6243C70.7608 87.4801 70.0544 86.7736 70.0544 85.9102V46.6631ZM26.0977 46.6631C26.0977 45.7997 26.8042 45.0933 27.6676 45.0933H59.0652C59.9287 45.0933 60.6351 45.7997 60.6351 46.6631V85.9102C60.6351 86.7736 59.9287 87.4801 59.0652 87.4801H27.6676C26.8042 87.4801 26.0977 86.7736 26.0977 85.9102V46.6631Z" stroke="white" stroke-width="2.35482" stroke-miterlimit="10"/>
<path d="M76.2398 22.0945L47.77 27.0789L47.7621 27.071L14.2373 32.9424V28.0522C46.412 22.3143 78.5789 16.5685 110.754 10.8306V16.0505L76.2398 22.0945ZM76.2398 22.0945H75.8787" stroke="white" stroke-width="2.35482" stroke-miterlimit="10"/>
<path d="M110.761 22.0945V16.0505L76.2397 22.0945H110.761Z" stroke="white" stroke-width="2.35482" stroke-miterlimit="10"/>
<path d="M14.2371 147.136V28.0522C11.7253 28.4996 9.21343 28.947 6.70947 29.3944V147.136C9.26053 147.136 11.8194 147.136 14.3705 147.136C49.9362 147.136 85.5018 147.136 121.075 147.136V8.98596C117.637 9.59822 114.199 10.2105 110.761 10.8306V147.136V139.749" stroke="white" stroke-width="2.35482" stroke-miterlimit="10"/>
<path d="M14.2373 32.9424H110.761V27.0789H47.77L14.2373 32.9424Z" stroke="white" stroke-width="2.35482" stroke-miterlimit="10"/>
<path d="M47.7698 27.0789H110.761V22.0945H76.2396L47.7698 27.0789Z" stroke="white" stroke-width="2.35482" stroke-miterlimit="10"/>
</svg>
