<svg width="536" height="92" viewBox="0 0 536 92" fill="none" xmlns="http://www.w3.org/2000/svg">
<path d="M534.582 52.0212V87.3435C534.582 89.0782 533.177 90.4833 531.443 90.4833H5.13977C3.40505 90.4833 2 89.0782 2 87.3435V50.4513C2 49.5879 2.70645 48.8814 3.56989 48.8814H531.443C533.177 48.8814 534.582 50.2865 534.582 52.0212Z" stroke="white" stroke-width="2.35482" stroke-miterlimit="10"/>
<path d="M19.8968 20.231H196.273C198.008 20.231 199.413 21.6361 199.413 23.3708V45.3491C199.413 47.0838 198.008 48.4889 196.273 48.4889H21.4667C19.7319 48.4889 18.3269 47.0838 18.3269 45.3491V21.8009C18.3269 20.9375 19.0334 20.231 19.8968 20.231Z" stroke="white" stroke-width="2.35482" stroke-miterlimit="10"/>
<path d="M58.5552 16.3063H27.3931V20.231H58.5552V16.3063Z" stroke="white" stroke-width="1.56988" stroke-miterlimit="10"/>
<path d="M61.5379 9.6344H24.4102C23.5432 9.6344 22.8403 10.3373 22.8403 11.2043V14.7365C22.8403 15.6035 23.5432 16.3064 24.4102 16.3064H61.5379C62.4049 16.3064 63.1078 15.6035 63.1078 14.7365V11.2043C63.1078 10.3373 62.4049 9.6344 61.5379 9.6344Z" stroke="white" stroke-width="1.56988" stroke-miterlimit="10"/>
<path d="M31.2 4.92468H54.7482C55.6117 4.92468 56.3181 5.63113 56.3181 6.49456V8.45692H29.6301V6.49456C29.6301 5.63113 30.3366 4.92468 31.2 4.92468Z" stroke="white" stroke-width="1.56988" stroke-miterlimit="10"/>
<path d="M36.3021 1H49.6461C50.5095 1 51.2159 1.70645 51.2159 2.56988V4.53223H34.7322V2.56988C34.7322 1.70645 35.4386 1 36.3021 1Z" stroke="white" stroke-width="1.56988" stroke-miterlimit="10"/>
</svg>
