<svg width="290" height="218" viewBox="0 0 290 218" fill="none" xmlns="http://www.w3.org/2000/svg">
<path d="M128.573 216.074L129.075 215.925V216.074H128.573Z" stroke="white" stroke-width="2.35482" stroke-miterlimit="10"/>
<path d="M139.06 186.89V192.227C139.06 192.58 138.738 192.847 138.385 192.785C138.032 192.722 137.686 192.651 137.364 192.588C135.638 192.266 133.919 193.138 133.141 194.708L130.74 199.59L126.854 207.479C126.155 208.899 124.711 209.794 123.133 209.794H120.465L117.082 216.074H23.6736V53.9835H29.1054C29.7883 53.9835 30.3456 53.4262 30.3456 52.7433V45.8044C30.3456 45.1215 29.7883 44.5642 29.1054 44.5642H23.6736V43.9755C23.6736 40.1842 26.7506 37.1072 30.5418 37.1072H132.192C135.92 37.1072 138.95 40.0822 139.052 43.7792H135.488C134.209 43.7792 133.173 44.8154 133.173 46.0948V52.4528C133.173 53.7323 134.209 54.7684 135.488 54.7684H139.06L138.667 176.042" stroke="white" stroke-width="2.35482" stroke-miterlimit="10"/>
<path d="M23.6739 201.937H4.34078C2.85724 201.937 1.64844 200.736 1.64844 199.245C1.64844 197.761 2.84939 196.552 4.34078 196.552H23.6739" stroke="white" stroke-width="2.35482" stroke-miterlimit="10"/>
<path d="M23.6738 64.4703H0" stroke="white" stroke-width="2.35482" stroke-miterlimit="10"/>
<path d="M124.272 32.7901H98.3687V36.7148H124.272V32.7901Z" stroke="white" stroke-width="2.35482" stroke-miterlimit="10"/>
<path d="M127.411 18.0724H95.2288C94.7953 18.0724 94.4438 18.4239 94.4438 18.8574V32.2014C94.4438 32.6349 94.7953 32.9863 95.2288 32.9863H127.411C127.845 32.9863 128.196 32.6349 128.196 32.2014V18.8574C128.196 18.4239 127.845 18.0724 127.411 18.0724Z" stroke="white" stroke-width="2.35482" stroke-miterlimit="10"/>
<path d="M105.661 11.5967H116.98C117.537 11.5967 117.992 12.0519 117.992 12.6093V17.8762H104.648V12.6093C104.648 12.0519 105.103 11.5967 105.661 11.5967Z" stroke="white" stroke-width="2.35482" stroke-miterlimit="10"/>
<path d="M128.463 22.3896H135.3C135.857 22.3896 136.313 22.8449 136.313 23.4022V27.6565C136.313 28.2138 135.857 28.6691 135.3 28.6691H128.463V22.3896Z" stroke="white" stroke-width="2.35482" stroke-miterlimit="10"/>
<path d="M99.1848 18.0724V5.49768" stroke="white" stroke-width="2.35482" stroke-miterlimit="10"/>
<path d="M17.8887 19.4461H10.0393C9.60582 19.4461 9.25439 19.7975 9.25439 20.231V28.8654C9.25439 29.2989 9.60582 29.6503 10.0393 29.6503H17.8887C18.3223 29.6503 18.6737 29.2989 18.6737 28.8654V20.231C18.6737 19.7975 18.3223 19.4461 17.8887 19.4461Z" stroke="white" stroke-width="2.35482" stroke-miterlimit="10"/>
<path d="M23.6735 61.7858C23.6735 61.7858 11.3813 59.4781 11.8366 29.6503" stroke="white" stroke-width="2.35482" stroke-miterlimit="10"/>
<path d="M23.6735 55.1923C23.6735 55.1923 15.4317 52.4136 15.8241 30.4352" stroke="white" stroke-width="2.35482" stroke-miterlimit="10"/>
<path d="M12.1508 19.446V13.7317C12.1508 13.7317 6.1931 8.15074 12.1508 2.8053" stroke="white" stroke-width="2.35482" stroke-miterlimit="10"/>
<path d="M15.7852 19.8386V14.1242C15.7852 14.1242 21.7429 8.54326 15.7852 3.19781" stroke="white" stroke-width="2.35482" stroke-miterlimit="10"/>
<path d="M46.8293 23.3708C46.8293 24.9328 46.2563 26.3692 45.3065 27.4682C45.1181 27.6879 44.9141 27.892 44.6943 28.0804C43.5875 29.0616 42.1354 29.6503 40.5498 29.6503C38.9642 29.6503 37.5042 29.0537 36.3975 28.0804C35.0945 26.9344 34.2703 25.2468 34.2703 23.3708C34.2703 19.9013 37.0804 17.0912 40.5498 17.0912C44.0192 17.0912 46.8293 19.9013 46.8293 23.3708Z" stroke="white" stroke-width="2.35482" stroke-miterlimit="10"/>
<path d="M45.3066 27.4682H94.4439" stroke="white" stroke-width="2.35482" stroke-miterlimit="10"/>
<path d="M46.6409 21.848H94.4438" stroke="white" stroke-width="2.35482" stroke-miterlimit="10"/>
<path d="M69.5925 21.848V4.36737" stroke="white" stroke-width="2.35482" stroke-miterlimit="10"/>
<path d="M53.8939 28.0804V32.4604C53.8939 33.0805 53.3994 33.575 52.7793 33.575H48.1874C47.4417 33.575 46.8294 34.1873 46.8294 34.933V36.7148H31.1306V31.7775C31.1306 29.7367 32.7869 28.0804 34.8277 28.0804H36.3976C37.5044 29.0538 38.9565 29.6503 40.5499 29.6503C42.1433 29.6503 43.5876 29.0616 44.6944 28.0804H53.8939Z" stroke="white" stroke-width="2.35482" stroke-miterlimit="10"/>
<path d="M30.3456 45.8044V52.7433C30.3456 53.4262 29.7883 53.9835 29.1054 53.9835H23.2026C21.515 53.9835 20.1414 52.6099 20.1414 50.9222V45.8044C20.1414 45.1215 20.6987 44.5642 21.3816 44.5642H29.1054C29.7883 44.5642 30.3456 45.1215 30.3456 45.8044Z" stroke="white" stroke-width="2.35482" stroke-miterlimit="10"/>
<path d="M140.277 43.7792H135.488C134.21 43.7792 133.173 44.816 133.173 46.0948V52.4528C133.173 53.7317 134.21 54.7684 135.488 54.7684H140.277C141.555 54.7684 142.592 53.7317 142.592 52.4528V46.0948C142.592 44.816 141.555 43.7792 140.277 43.7792Z" stroke="white" stroke-width="2.35482" stroke-miterlimit="10"/>
<path d="M162.805 33.8698L154.691 47.3093C153.795 48.7938 154.272 50.7238 155.756 51.62C157.241 52.5162 159.171 52.0393 160.067 50.5548L168.181 37.1153C169.077 35.6308 168.6 33.7008 167.115 32.8046C165.631 31.9084 163.701 32.3853 162.805 33.8698Z" stroke="white" stroke-width="2.35482" stroke-miterlimit="10"/>
<path d="M163.589 32.9863C157.114 21.4084 137.333 39.4307 137.333 39.4307" stroke="white" stroke-width="2.35482" stroke-miterlimit="10"/>
<path d="M142.592 47.0289C142.592 47.0289 152.012 28.8654 161.431 36.7148" stroke="white" stroke-width="2.35482" stroke-miterlimit="10"/>
<path d="M147.302 49.2738C147.302 49.2738 153.832 36.4793 158.291 40.6395" stroke="white" stroke-width="2.35482" stroke-miterlimit="10"/>
<path d="M147.718 48.5517C147.718 48.5517 145.732 53.1985 142.592 52.4529" stroke="white" stroke-width="2.35482" stroke-miterlimit="10"/>
<path d="M44.7729 55.5533H40.0632V172.117H44.7729V55.5533Z" stroke="white" stroke-width="2.35482" stroke-miterlimit="10"/>
<path d="M42.4179 55.5534C45.4525 55.5534 47.9125 53.0934 47.9125 50.0588C47.9125 47.0242 45.4525 44.5642 42.4179 44.5642C39.3833 44.5642 36.9233 47.0242 36.9233 50.0588C36.9233 53.0934 39.3833 55.5534 42.4179 55.5534Z" stroke="white" stroke-width="2.35482" stroke-miterlimit="10"/>
<path d="M26.8054 216.074V185.179C26.8054 184.032 27.7316 183.106 28.8777 183.106H34.9609V216.074" stroke="white" stroke-width="1.56988" stroke-miterlimit="10"/>
<path d="M30.8872 216.074V174.919C30.8872 173.805 31.7899 172.902 32.9045 172.902H58.6035" stroke="white" stroke-width="1.56988" stroke-miterlimit="10"/>
<path d="M26.8055 204.983H23.6736" stroke="white" stroke-width="1.56988" stroke-miterlimit="10"/>
<path d="M26.8055 194.174H23.6736" stroke="white" stroke-width="1.56988" stroke-miterlimit="10"/>
<path d="M70.0479 172.902H91.4453C95.1973 172.902 98.2429 175.948 98.2429 179.7V216.074" stroke="white" stroke-width="1.56988" stroke-miterlimit="10"/>
<path d="M70.0479 177.8H91.4375C92.5992 177.8 93.5333 178.742 93.5333 179.896V216.074" stroke="white" stroke-width="1.56988" stroke-miterlimit="10"/>
<path d="M34.7256 183.106V179.786C34.7256 178.687 35.6126 177.8 36.7115 177.8H58.6035" stroke="white" stroke-width="1.56988" stroke-miterlimit="10"/>
<path d="M35.0867 188.122H86.9163C88.1565 188.122 89.1534 189.127 89.1534 190.359V215.673" stroke="white" stroke-width="1.56988" stroke-miterlimit="10"/>
<path d="M89.1614 196.937H34.9612" stroke="white" stroke-width="1.56988" stroke-miterlimit="10"/>
<path d="M89.1614 204.025H34.9612" stroke="white" stroke-width="1.56988" stroke-miterlimit="10"/>
<path d="M89.161 210.336H35.4475" stroke="white" stroke-width="1.56988" stroke-miterlimit="10"/>
<path d="M57.7715 188.122V185.179C57.7715 184.252 58.525 184.284 59.4513 184.284H68.69C69.6162 184.284 70.3698 184.252 70.3698 185.179V188.122" stroke="white" stroke-width="1.56988" stroke-miterlimit="10"/>
<path d="M70.0477 170.626V179.025C70.0477 179.762 69.4512 180.359 68.7133 180.359H59.9298C59.192 180.359 58.5955 179.762 58.5955 179.025V170.626H70.0399H70.0477Z" stroke="white" stroke-width="1.56988" stroke-miterlimit="10"/>
<path d="M73.5173 165.61V169.205C73.5173 169.731 73.0934 170.155 72.5675 170.155H56.4134C55.8875 170.155 55.4636 169.731 55.4636 169.205V165.61C55.4636 165.084 55.8875 164.66 56.4134 164.66H60.0241C60.346 164.66 60.605 164.401 60.605 164.079V162.721C60.605 161.779 61.3742 161.01 62.3162 161.01H68.3367C69.2786 161.01 70.0478 161.779 70.0478 162.721V164.079C70.0478 164.401 70.3069 164.66 70.6287 164.66H72.5675C73.0934 164.66 73.5173 165.084 73.5173 165.61Z" stroke="white" stroke-width="1.56988" stroke-miterlimit="10"/>
<path d="M89.1614 190.367V184.927C89.1614 183.593 89.8757 182.368 91.0295 181.709L96.7596 178.436C97.8821 177.792 99.1615 177.455 100.457 177.455H134.35" stroke="white" stroke-width="1.56988" stroke-miterlimit="10"/>
<path d="M98.2429 182.839H133.126" stroke="white" stroke-width="1.56988" stroke-miterlimit="10"/>
<path d="M98.2429 190.822C103.086 190.822 107.019 194.755 107.019 199.598V202.518C107.019 207.361 103.086 211.293 98.2429 211.293" stroke="white" stroke-width="1.56988" stroke-miterlimit="10"/>
<path d="M98.2429 196.937H120.26" stroke="white" stroke-width="1.56988" stroke-miterlimit="10"/>
<path d="M98.2429 202.793H117.081" stroke="white" stroke-width="1.56988" stroke-miterlimit="10"/>
<path d="M105.661 194.92L132.286 184.284" stroke="white" stroke-width="1.56988" stroke-miterlimit="10"/>
<path d="M133.557 185.461L120.465 209.794" stroke="white" stroke-width="1.56988" stroke-miterlimit="10"/>
<path d="M129.075 192.839L120.017 209.355C116.98 207.683 115.865 203.868 117.529 200.83L120.551 195.328C122.223 192.29 126.038 191.175 129.075 192.839Z" stroke="white" stroke-width="1.56988" stroke-miterlimit="10"/>
<path d="M104.413 182.839V177.455" stroke="white" stroke-width="1.56988" stroke-miterlimit="10"/>
<path d="M112.388 182.839V177.455" stroke="white" stroke-width="1.56988" stroke-miterlimit="10"/>
<path d="M120.543 182.839V177.8" stroke="white" stroke-width="1.56988" stroke-miterlimit="10"/>
<path d="M126.783 182.839V177.455" stroke="white" stroke-width="1.56988" stroke-miterlimit="10"/>
<path d="M154.759 208.224L139.06 212.934V216.074H129.075V212.573C129.075 210.689 130.378 209.064 132.207 208.656L139.06 207.118L150.182 204.622C150.528 204.543 150.873 204.551 151.203 204.622C151.721 204.731 152.2 205.022 152.537 205.454L154.759 208.224Z" stroke="white" stroke-width="1.56988" stroke-miterlimit="10"/>
<path d="M154.759 208.224L167.42 205.085L194.453 198.381" stroke="white" stroke-width="1.56988" stroke-miterlimit="10"/>
<path d="M120.464 209.794H120.009" stroke="white" stroke-width="1.56988" stroke-miterlimit="10"/>
<path d="M139.06 192.91V199.59C136.674 199.315 133.919 199.276 130.74 199.59L133.141 194.708C133.919 193.13 135.645 192.259 137.38 192.588C137.89 192.683 138.448 192.792 139.06 192.91Z" stroke="white" stroke-width="1.56988" stroke-miterlimit="10"/>
<path d="M139.06 192.91C142.113 193.515 146.344 194.441 150.708 195.665C157.639 187.816 163.864 194.92 163.864 194.92C163.864 194.92 178.307 194.88 184.586 187.423C190.866 179.966 198.715 186.207 198.715 186.207V195.665" stroke="white" stroke-width="1.56988" stroke-miterlimit="10"/>
<path d="M151.203 204.621C150.873 204.551 150.528 204.543 150.182 204.621L139.06 207.118L132.207 208.656C130.378 209.064 129.075 210.689 129.075 212.573V215.925L128.573 216.074H117.082L120.465 209.794H123.133C124.711 209.794 126.155 208.899 126.854 207.479L130.74 199.59C133.919 199.276 136.674 199.307 139.06 199.582C144.861 200.249 148.511 202.345 150.834 204.3C150.96 204.41 151.085 204.512 151.203 204.621Z" stroke="white" stroke-width="1.56988" stroke-miterlimit="10"/>
<path d="M158.683 204.3C160.851 204.3 162.608 202.543 162.608 200.375C162.608 198.207 160.851 196.45 158.683 196.45C156.516 196.45 154.759 198.207 154.759 200.375C154.759 202.543 156.516 204.3 158.683 204.3Z" stroke="white" stroke-width="1.56988" stroke-miterlimit="10"/>
<path d="M128.071 79.4941H112.372C111.071 79.4941 110.017 80.5484 110.017 81.8489V89.6983C110.017 90.9988 111.071 92.0531 112.372 92.0531H128.071C129.371 92.0531 130.426 90.9988 130.426 89.6983V81.8489C130.426 80.5484 129.371 79.4941 128.071 79.4941Z" stroke="white" stroke-width="1.56988" stroke-miterlimit="10"/>
<path d="M114.884 73.9995H124.774C126.163 73.9995 127.286 75.1219 127.286 76.5113V79.494H112.372V76.5113C112.372 75.1219 113.495 73.9995 114.884 73.9995Z" stroke="white" stroke-width="1.56988" stroke-miterlimit="10"/>
<path d="M122.576 58.3007H116.297V73.2145H122.576V58.3007Z" stroke="white" stroke-width="1.56988" stroke-miterlimit="10"/>
<path d="M113.157 51.2362H126.501V55.3571C126.501 56.982 125.182 58.3007 123.557 58.3007H116.101C114.476 58.3007 113.157 56.982 113.157 55.3571V51.2362Z" stroke="white" stroke-width="1.56988" stroke-miterlimit="10"/>
<path d="M113.314 43.3868H128.699C129.217 43.3868 129.641 43.8106 129.641 44.3287V47.7353C129.641 49.2346 128.424 50.4512 126.925 50.4512H113.542C112.898 50.4512 112.38 49.9332 112.38 49.2895V44.3287C112.38 43.8106 112.804 43.3868 113.322 43.3868H113.314Z" stroke="white" stroke-width="1.56988" stroke-miterlimit="10"/>
<path d="M130.426 83.4188H132.945C133.722 83.4188 134.35 84.0467 134.35 84.8238V86.7312C134.35 87.5083 133.722 88.1363 132.945 88.1363H130.426V83.4266V83.4188Z" stroke="white" stroke-width="1.56988" stroke-miterlimit="10"/>
<path d="M119.436 43.3868H128.644C129.193 43.3868 129.641 43.8342 129.641 44.3837V46.4088C129.641 46.9112 129.232 47.3193 128.73 47.3193H120.465C119.892 47.3193 119.428 46.8562 119.428 46.2832V43.3946L119.436 43.3868Z" stroke="white" stroke-width="1.56988" stroke-miterlimit="10"/>
<path d="M224.619 215.289C224.619 215.289 220.694 190.956 239.532 190.171C241.149 190.1 242.633 189.959 243.991 189.755C251.809 188.569 257.665 182.078 258.45 174.205C259.187 166.85 263.567 152.368 286.66 152.015C287.602 151.999 288.387 152.745 288.411 153.694C288.787 174.158 288.379 215.289 288.379 215.289H224.626H224.619Z" stroke="white" stroke-width="1.56988" stroke-miterlimit="10"/>
<path d="M229.328 215.289C229.328 215.289 227.758 209.009 242.672 209.009H268.552C268.552 209.009 279.564 209.009 279.564 188.601V161.465C279.564 161.465 278.779 152.494 287.524 152.25" stroke="white" stroke-width="1.56988" stroke-miterlimit="10"/>
<path d="M238.747 190.171L233.253 190.956V170.94C233.253 169.425 234.485 168.192 236 168.192C237.515 168.192 238.747 169.425 238.747 170.94V190.171Z" stroke="white" stroke-width="1.56988" stroke-miterlimit="10"/>
<path d="M202.018 203.676C203.866 201.827 203.886 198.85 202.062 197.027C200.238 195.203 197.261 195.223 195.413 197.071C193.565 198.919 193.545 201.896 195.369 203.72C197.193 205.544 200.17 205.524 202.018 203.676Z" stroke="white" stroke-width="1.56988" stroke-miterlimit="10"/>
<path d="M202.018 203.676C203.866 201.827 203.886 198.85 202.062 197.027C200.238 195.203 197.261 195.223 195.413 197.071C193.565 198.919 193.545 201.896 195.369 203.72C197.193 205.544 200.17 205.524 202.018 203.676Z" stroke="white" stroke-width="1.56988" stroke-miterlimit="10"/>
<path d="M197.114 185.547C190.505 186.277 185.215 191.701 184.642 198.326C184.438 200.728 184.822 203.036 185.701 205.085C186.447 206.874 187.57 208.475 188.951 209.794C189.234 210.077 189.532 210.336 189.838 210.579C192.263 212.541 195.356 213.719 198.716 213.719C202.075 213.719 205.168 212.541 207.593 210.579C207.899 210.336 208.198 210.077 208.48 209.794C209.862 208.475 210.984 206.874 211.73 205.085C212.452 203.397 212.845 201.537 212.845 199.59C212.845 191.262 205.631 184.613 197.114 185.547ZM199.791 204.959C196.361 205.72 193.362 202.722 194.124 199.292C194.508 197.565 195.906 196.168 197.632 195.783C201.063 195.022 204.061 198.02 203.3 201.45C202.915 203.177 201.518 204.574 199.791 204.959Z" stroke="white" stroke-width="1.56988" stroke-miterlimit="10"/>
<path d="M218.339 210.775V215.289H176.737V210.768C176.737 210.666 176.823 210.579 176.925 210.579H183.802V205.273C183.802 205.171 183.888 205.085 183.99 205.085H185.701C186.447 206.874 187.569 208.476 188.951 209.794C189.233 210.077 189.532 210.336 189.838 210.579C192.263 212.542 195.356 213.719 198.715 213.719C202.075 213.719 205.168 212.542 207.593 210.579C207.899 210.336 208.197 210.077 208.48 209.794C209.862 208.476 210.984 206.874 211.73 205.085H212.656C212.758 205.085 212.844 205.171 212.844 205.273V210.579H218.143C218.253 210.579 218.339 210.666 218.339 210.775Z" stroke="white" stroke-width="1.56988" stroke-miterlimit="10"/>
<path d="M69.5927 4.9247C70.6765 4.9247 71.5551 4.04613 71.5551 2.96235C71.5551 1.87857 70.6765 1 69.5927 1C68.5089 1 67.6304 1.87857 67.6304 2.96235C67.6304 4.04613 68.5089 4.9247 69.5927 4.9247Z" stroke="white" stroke-width="1.56988" stroke-miterlimit="10"/>
<path d="M99.4204 5.70962C100.504 5.70962 101.383 4.83104 101.383 3.74726C101.383 2.66349 100.504 1.78491 99.4204 1.78491C98.3366 1.78491 97.458 2.66349 97.458 3.74726C97.458 4.83104 98.3366 5.70962 99.4204 5.70962Z" stroke="white" stroke-width="1.56988" stroke-miterlimit="10"/>
<path d="M138.667 187.423C142.135 187.423 144.947 184.612 144.947 181.144C144.947 177.676 142.135 174.864 138.667 174.864C135.199 174.864 132.388 177.676 132.388 181.144C132.388 184.612 135.199 187.423 138.667 187.423Z" stroke="white" stroke-width="2.35482" stroke-miterlimit="10"/>
</svg>
