<svg width="135" height="156" viewBox="0 0 135 156" fill="none" xmlns="http://www.w3.org/2000/svg">
<path d="M125.776 60.1758V154.071H85.4378V57.9246C85.4378 52.6106 83.2088 47.8024 79.6013 44.3283C75.9993 40.8431 71.0189 38.692 65.5159 38.692C54.5155 38.692 45.5941 47.3022 45.5941 57.9246V154.071H5.26123V60.1758C5.26123 28.0474 32.2369 2 65.5159 2C82.1582 2 97.2219 8.50906 108.128 19.0369C119.034 29.5648 125.776 44.106 125.776 60.1758Z" stroke="white" stroke-width="3.33513" stroke-miterlimit="10"/>
<path d="M49.0705 129.657L5.3777 121.662C3.20347 121.264 1.11838 122.704 0.720515 124.878C0.322647 127.052 1.76267 129.138 3.93689 129.535L47.6297 137.531C49.8039 137.929 51.889 136.489 52.2869 134.314C52.6848 132.14 51.2448 130.055 49.0705 129.657Z" fill="white"/>
<path d="M49.0744 112.867L5.38161 104.871C3.20738 104.473 1.12229 105.913 0.724419 108.088C0.32655 110.262 1.76657 112.347 3.9408 112.745L47.6336 120.74C49.8079 121.138 51.8929 119.698 52.2908 117.524C52.6887 115.35 51.2487 113.265 49.0744 112.867Z" fill="white"/>
<path d="M49.0754 98.6304L5.38258 90.635C3.20836 90.2371 1.12327 91.6771 0.725398 93.8513C0.32753 96.0256 1.76755 98.1107 3.94177 98.5085L47.6346 106.504C49.8088 106.902 51.8939 105.462 52.2918 103.288C52.6897 101.113 51.2496 99.0283 49.0754 98.6304Z" fill="white"/>
<path d="M49.0735 81.7142L5.38063 73.7187C3.2064 73.3208 1.12131 74.7608 0.723443 76.9351C0.325575 79.1093 1.76559 81.1944 3.93982 81.5923L47.6326 89.5878C49.8069 89.9856 51.892 88.5456 52.2898 86.3714C52.6877 84.1971 51.2477 82.1121 49.0735 81.7142Z" fill="white"/>
<path d="M49.0764 66.1378L5.38356 58.1423C3.20933 57.7444 1.12424 59.1844 0.726372 61.3587C0.328503 63.5329 1.76852 65.618 3.94275 66.0159L47.6356 74.0113C49.8098 74.4092 51.8949 72.9692 52.2928 70.795C52.6906 68.6207 51.2506 66.5356 49.0764 66.1378Z" fill="white"/>
<path d="M128.105 52.8107H51.986C49.7757 52.8107 47.9839 54.6025 47.9839 56.8128C47.9839 59.0232 49.7757 60.815 51.986 60.815H128.105C130.315 60.815 132.107 59.0232 132.107 56.8128C132.107 54.6025 130.315 52.8107 128.105 52.8107Z" fill="white"/>
<path d="M130.365 137.662L86.6726 129.666C84.4984 129.269 82.4133 130.709 82.0154 132.883C81.6176 135.057 83.0576 137.142 85.2318 137.54L128.925 145.536C131.099 145.933 133.184 144.493 133.582 142.319C133.98 140.145 132.54 138.06 130.365 137.662Z" fill="white"/>
<path d="M130.368 120.877L86.6755 112.881C84.5013 112.483 82.4162 113.923 82.0184 116.098C81.6205 118.272 83.0605 120.357 85.2347 120.755L128.928 128.75C131.102 129.148 133.187 127.708 133.585 125.534C133.983 123.36 132.543 121.275 130.368 120.877Z" fill="white"/>
<path d="M130.364 106.635L86.6716 98.6396C84.4974 98.2417 82.4123 99.6818 82.0145 101.856C81.6166 104.03 83.0566 106.115 85.2308 106.513L128.924 114.509C131.098 114.907 133.183 113.467 133.581 111.292C133.979 109.118 132.539 107.033 130.364 106.635Z" fill="white"/>
<path d="M130.368 89.7187L86.6755 81.7232C84.5013 81.3253 82.4162 82.7654 82.0184 84.9396C81.6205 87.1138 83.0605 89.1989 85.2347 89.5968L128.928 97.5923C131.102 97.9901 133.187 96.5501 133.585 94.3759C133.983 92.2017 132.543 90.1166 130.368 89.7187Z" fill="white"/>
<path d="M130.37 74.1424L86.6775 66.1469C84.5033 65.749 82.4182 67.1891 82.0203 69.3633C81.6224 71.5375 83.0625 73.6226 85.2367 74.0205L128.93 82.016C131.104 82.4138 133.189 80.9738 133.587 78.7996C133.985 76.6254 132.545 74.5403 130.37 74.1424Z" fill="white"/>
</svg>
