<svg width="290" height="218" viewBox="0 0 290 218" fill="none" xmlns="http://www.w3.org/2000/svg">
<path d="M128.735 216.543L129.237 216.394V216.543H128.735Z" stroke="white" stroke-width="2.35482" stroke-miterlimit="10"/>
<path d="M139.222 187.359V192.697C139.222 193.05 138.9 193.317 138.547 193.254C138.194 193.191 137.849 193.121 137.527 193.058C135.8 192.736 134.081 193.607 133.304 195.177L130.902 200.06L127.016 207.948C126.318 209.369 124.874 210.264 123.296 210.264H120.627L117.244 216.543H23.8359V54.4531H29.2677C29.9506 54.4531 30.5079 53.8958 30.5079 53.2129V46.274C30.5079 45.5911 29.9506 45.0338 29.2677 45.0338H23.8359V44.4451C23.8359 40.6538 26.9129 37.5768 30.7042 37.5768H132.354C136.082 37.5768 139.112 40.5518 139.214 44.2488H135.651C134.371 44.2488 133.335 45.285 133.335 46.5644V52.9224C133.335 54.2019 134.371 55.238 135.651 55.238H139.222L138.83 176.511" stroke="white" stroke-width="2.35482" stroke-miterlimit="10"/>
<path d="M23.8362 202.407H4.50313C3.01959 202.407 1.81079 201.206 1.81079 199.714C1.81079 198.231 3.01174 197.022 4.50313 197.022H23.8362" stroke="white" stroke-width="2.35482" stroke-miterlimit="10"/>
<path d="M23.8362 64.9399H0.162354" stroke="white" stroke-width="2.35482" stroke-miterlimit="10"/>
<path d="M124.434 33.2597H98.531V37.1844H124.434V33.2597Z" stroke="white" stroke-width="2.35482" stroke-miterlimit="10"/>
<path d="M127.574 18.542H95.3911C94.9576 18.542 94.6062 18.8935 94.6062 19.327V32.671C94.6062 33.1045 94.9576 33.4559 95.3911 33.4559H127.574C128.007 33.4559 128.359 33.1045 128.359 32.671V19.327C128.359 18.8935 128.007 18.542 127.574 18.542Z" stroke="white" stroke-width="2.35482" stroke-miterlimit="10"/>
<path d="M105.823 12.0663H117.142C117.699 12.0663 118.155 12.5215 118.155 13.0788V18.3458H104.811V13.0788C104.811 12.5215 105.266 12.0663 105.823 12.0663Z" stroke="white" stroke-width="2.35482" stroke-miterlimit="10"/>
<path d="M128.625 22.8592H135.462C136.02 22.8592 136.475 23.3145 136.475 23.8718V28.1262C136.475 28.6835 136.02 29.1387 135.462 29.1387H128.625V22.8592Z" stroke="white" stroke-width="2.35482" stroke-miterlimit="10"/>
<path d="M99.3472 18.542V5.96729" stroke="white" stroke-width="2.35482" stroke-miterlimit="10"/>
<path d="M18.0511 19.9157H10.2017C9.76818 19.9157 9.41675 20.2671 9.41675 20.7006V29.335C9.41675 29.7685 9.76818 30.1199 10.2017 30.1199H18.0511C18.4846 30.1199 18.836 29.7685 18.836 29.335V20.7006C18.836 20.2671 18.4846 19.9157 18.0511 19.9157Z" stroke="white" stroke-width="2.35482" stroke-miterlimit="10"/>
<path d="M23.8358 62.2554C23.8358 62.2554 11.5436 59.9477 11.9989 30.1199" stroke="white" stroke-width="2.35482" stroke-miterlimit="10"/>
<path d="M23.8359 55.6619C23.8359 55.6619 15.594 52.8832 15.9865 30.9048" stroke="white" stroke-width="2.35482" stroke-miterlimit="10"/>
<path d="M12.3132 19.9157V14.2013C12.3132 14.2013 6.35545 8.62036 12.3132 3.27491" stroke="white" stroke-width="2.35482" stroke-miterlimit="10"/>
<path d="M15.9475 20.3081V14.5938C15.9475 14.5938 21.9052 9.01283 15.9475 3.66738" stroke="white" stroke-width="2.35482" stroke-miterlimit="10"/>
<path d="M46.9917 23.8404C46.9917 25.4024 46.4187 26.8389 45.4689 27.9378C45.2805 28.1576 45.0764 28.3617 44.8566 28.55C43.7499 29.5312 42.2977 30.1199 40.7121 30.1199C39.1266 30.1199 37.6666 29.5234 36.5598 28.55C35.2568 27.404 34.4326 25.7164 34.4326 23.8404C34.4326 20.371 37.2427 17.5609 40.7121 17.5609C44.1816 17.5609 46.9917 20.371 46.9917 23.8404Z" stroke="white" stroke-width="2.35482" stroke-miterlimit="10"/>
<path d="M45.469 27.9378H94.6063" stroke="white" stroke-width="2.35482" stroke-miterlimit="10"/>
<path d="M46.8032 22.3176H94.6061" stroke="white" stroke-width="2.35482" stroke-miterlimit="10"/>
<path d="M69.7549 22.3176V4.83696" stroke="white" stroke-width="2.35482" stroke-miterlimit="10"/>
<path d="M54.0563 28.55V32.93C54.0563 33.5501 53.5618 34.0446 52.9416 34.0446H48.3497C47.604 34.0446 46.9918 34.6569 46.9918 35.4026V37.1844H31.293V32.2471C31.293 30.2063 32.9492 28.55 34.9901 28.55H36.5599C37.6667 29.5234 39.1188 30.1199 40.7123 30.1199C42.3057 30.1199 43.75 29.5312 44.8567 28.55H54.0563Z" stroke="white" stroke-width="2.35482" stroke-miterlimit="10"/>
<path d="M30.5079 46.274V53.2129C30.5079 53.8958 29.9506 54.4531 29.2677 54.4531H23.365C21.6774 54.4531 20.3037 53.0794 20.3037 51.3918V46.274C20.3037 45.5911 20.861 45.0338 21.5439 45.0338H29.2677C29.9506 45.0338 30.5079 45.5911 30.5079 46.274Z" stroke="white" stroke-width="2.35482" stroke-miterlimit="10"/>
<path d="M140.439 44.2488H135.651C134.372 44.2488 133.335 45.2856 133.335 46.5644V52.9224C133.335 54.2013 134.372 55.238 135.651 55.238H140.439C141.718 55.238 142.754 54.2013 142.754 52.9224V46.5644C142.754 45.2856 141.718 44.2488 140.439 44.2488Z" stroke="white" stroke-width="2.35482" stroke-miterlimit="10"/>
<path d="M162.967 34.3394L154.853 47.7789C153.957 49.2634 154.434 51.1934 155.919 52.0896C157.403 52.9858 159.333 52.5089 160.229 51.0244L168.343 37.5849C169.239 36.1004 168.762 34.1704 167.278 33.2742C165.793 32.378 163.863 32.8549 162.967 34.3394Z" stroke="white" stroke-width="2.35482" stroke-miterlimit="10"/>
<path d="M163.752 33.4559C157.276 21.878 137.495 39.9003 137.495 39.9003" stroke="white" stroke-width="2.35482" stroke-miterlimit="10"/>
<path d="M142.755 47.4985C142.755 47.4985 152.174 29.335 161.593 37.1844" stroke="white" stroke-width="2.35482" stroke-miterlimit="10"/>
<path d="M147.464 49.7434C147.464 49.7434 153.995 36.9489 158.453 41.1091" stroke="white" stroke-width="2.35482" stroke-miterlimit="10"/>
<path d="M147.88 49.0213C147.88 49.0213 145.894 53.6681 142.755 52.9224" stroke="white" stroke-width="2.35482" stroke-miterlimit="10"/>
<path d="M44.9352 56.0229H40.2256V172.587H44.9352V56.0229Z" stroke="white" stroke-width="2.35482" stroke-miterlimit="10"/>
<path d="M42.5803 56.023C45.6149 56.023 48.0749 53.5629 48.0749 50.5284C48.0749 47.4938 45.6149 45.0338 42.5803 45.0338C39.5457 45.0338 37.0857 47.4938 37.0857 50.5284C37.0857 53.5629 39.5457 56.023 42.5803 56.023Z" stroke="white" stroke-width="2.35482" stroke-miterlimit="10"/>
<path d="M26.9678 216.543V185.648C26.9678 184.502 27.894 183.576 29.04 183.576H35.1233V216.543" stroke="white" stroke-width="1.56988" stroke-miterlimit="10"/>
<path d="M31.0496 216.543V175.389C31.0496 174.274 31.9522 173.372 33.0669 173.372H58.7658" stroke="white" stroke-width="1.56988" stroke-miterlimit="10"/>
<path d="M26.9679 205.452H23.8359" stroke="white" stroke-width="1.56988" stroke-miterlimit="10"/>
<path d="M26.9679 194.643H23.8359" stroke="white" stroke-width="1.56988" stroke-miterlimit="10"/>
<path d="M70.2102 173.372H91.6077C95.3597 173.372 98.4053 176.417 98.4053 180.169V216.543" stroke="white" stroke-width="1.56988" stroke-miterlimit="10"/>
<path d="M70.2102 178.27H91.5998C92.7616 178.27 93.6956 179.212 93.6956 180.365V216.543" stroke="white" stroke-width="1.56988" stroke-miterlimit="10"/>
<path d="M34.8879 183.576V180.256C34.8879 179.157 35.7749 178.27 36.8738 178.27H58.7658" stroke="white" stroke-width="1.56988" stroke-miterlimit="10"/>
<path d="M35.249 188.592H87.0787C88.3189 188.592 89.3157 189.596 89.3157 190.829V216.143" stroke="white" stroke-width="1.56988" stroke-miterlimit="10"/>
<path d="M89.3237 197.406H35.1235" stroke="white" stroke-width="1.56988" stroke-miterlimit="10"/>
<path d="M89.3237 204.495H35.1235" stroke="white" stroke-width="1.56988" stroke-miterlimit="10"/>
<path d="M89.3234 210.805H35.6099" stroke="white" stroke-width="1.56988" stroke-miterlimit="10"/>
<path d="M57.9338 188.592V185.648C57.9338 184.722 58.6874 184.753 59.6136 184.753H68.8524C69.7786 184.753 70.5322 184.722 70.5322 185.648V188.592" stroke="white" stroke-width="1.56988" stroke-miterlimit="10"/>
<path d="M70.2101 171.095V179.494C70.2101 180.232 69.6135 180.829 68.8757 180.829H60.0922C59.3544 180.829 58.7578 180.232 58.7578 179.494V171.095H70.2022H70.2101Z" stroke="white" stroke-width="1.56988" stroke-miterlimit="10"/>
<path d="M73.6796 166.079V169.675C73.6796 170.2 73.2558 170.624 72.7298 170.624H56.5758C56.0499 170.624 55.626 170.2 55.626 169.675V166.079C55.626 165.554 56.0499 165.13 56.5758 165.13H60.1865C60.5083 165.13 60.7674 164.871 60.7674 164.549V163.191C60.7674 162.249 61.5366 161.48 62.4785 161.48H68.499C69.441 161.48 70.2102 162.249 70.2102 163.191V164.549C70.2102 164.871 70.4692 165.13 70.791 165.13H72.7298C73.2558 165.13 73.6796 165.554 73.6796 166.079Z" stroke="white" stroke-width="1.56988" stroke-miterlimit="10"/>
<path d="M89.3237 190.837V185.397C89.3237 184.062 90.038 182.838 91.1919 182.179L96.922 178.905C98.0444 178.262 99.3239 177.924 100.619 177.924H134.513" stroke="white" stroke-width="1.56988" stroke-miterlimit="10"/>
<path d="M98.4053 183.309H133.288" stroke="white" stroke-width="1.56988" stroke-miterlimit="10"/>
<path d="M98.4053 191.292C103.248 191.292 107.181 195.224 107.181 200.067V202.987C107.181 207.831 103.248 211.763 98.4053 211.763" stroke="white" stroke-width="1.56988" stroke-miterlimit="10"/>
<path d="M98.4053 197.406H120.423" stroke="white" stroke-width="1.56988" stroke-miterlimit="10"/>
<path d="M98.4053 203.262H117.244" stroke="white" stroke-width="1.56988" stroke-miterlimit="10"/>
<path d="M105.823 195.389L132.448 184.753" stroke="white" stroke-width="1.56988" stroke-miterlimit="10"/>
<path d="M133.72 185.931L120.627 210.264" stroke="white" stroke-width="1.56988" stroke-miterlimit="10"/>
<path d="M129.238 193.309L120.18 209.824C117.142 208.152 116.027 204.337 117.691 201.3L120.713 195.797C122.385 192.76 126.2 191.645 129.238 193.309Z" stroke="white" stroke-width="1.56988" stroke-miterlimit="10"/>
<path d="M104.575 183.309V177.924" stroke="white" stroke-width="1.56988" stroke-miterlimit="10"/>
<path d="M112.55 183.309V177.924" stroke="white" stroke-width="1.56988" stroke-miterlimit="10"/>
<path d="M120.706 183.309V178.27" stroke="white" stroke-width="1.56988" stroke-miterlimit="10"/>
<path d="M126.946 183.309V177.924" stroke="white" stroke-width="1.56988" stroke-miterlimit="10"/>
<path d="M154.921 208.694L139.222 213.404V216.543H129.238V213.043C129.238 211.159 130.541 209.534 132.37 209.126L139.222 207.587L150.345 205.091C150.69 205.013 151.036 205.02 151.365 205.091C151.883 205.201 152.362 205.491 152.7 205.923L154.921 208.694Z" stroke="white" stroke-width="1.56988" stroke-miterlimit="10"/>
<path d="M154.921 208.694L167.582 205.554L194.615 198.851" stroke="white" stroke-width="1.56988" stroke-miterlimit="10"/>
<path d="M120.626 210.264H120.172" stroke="white" stroke-width="1.56988" stroke-miterlimit="10"/>
<path d="M139.222 193.38V200.06C136.836 199.785 134.081 199.746 130.902 200.06L133.304 195.177C134.081 193.6 135.808 192.728 137.542 193.058C138.053 193.152 138.61 193.262 139.222 193.38Z" stroke="white" stroke-width="1.56988" stroke-miterlimit="10"/>
<path d="M139.222 193.38C142.276 193.984 146.506 194.91 150.871 196.135C157.802 188.285 164.026 195.389 164.026 195.389C164.026 195.389 178.469 195.35 184.749 187.893C191.028 180.436 198.878 186.676 198.878 186.676V196.135" stroke="white" stroke-width="1.56988" stroke-miterlimit="10"/>
<path d="M151.365 205.091C151.036 205.02 150.69 205.013 150.345 205.091L139.222 207.587L132.37 209.126C130.541 209.534 129.238 211.159 129.238 213.043V216.394L128.735 216.543H117.244L120.627 210.264H123.296C124.874 210.264 126.318 209.369 127.016 207.948L130.902 200.06C134.081 199.746 136.836 199.777 139.222 200.052C145.023 200.719 148.673 202.815 150.996 204.769C151.122 204.879 151.248 204.981 151.365 205.091Z" stroke="white" stroke-width="1.56988" stroke-miterlimit="10"/>
<path d="M158.846 204.769C161.013 204.769 162.77 203.012 162.77 200.845C162.77 198.677 161.013 196.92 158.846 196.92C156.678 196.92 154.921 198.677 154.921 200.845C154.921 203.012 156.678 204.769 158.846 204.769Z" stroke="white" stroke-width="1.56988" stroke-miterlimit="10"/>
<path d="M128.233 79.9637H112.534C111.234 79.9637 110.179 81.0179 110.179 82.3185V90.1679C110.179 91.4684 111.234 92.5227 112.534 92.5227H128.233C129.534 92.5227 130.588 91.4684 130.588 90.1679V82.3185C130.588 81.0179 129.534 79.9637 128.233 79.9637Z" stroke="white" stroke-width="1.56988" stroke-miterlimit="10"/>
<path d="M115.046 74.4691H124.936C126.326 74.4691 127.448 75.5915 127.448 76.9809V79.9636H112.534V76.9809C112.534 75.5915 113.657 74.4691 115.046 74.4691Z" stroke="white" stroke-width="1.56988" stroke-miterlimit="10"/>
<path d="M122.739 58.7702H116.459V73.6841H122.739V58.7702Z" stroke="white" stroke-width="1.56988" stroke-miterlimit="10"/>
<path d="M113.319 51.7058H126.663V55.8267C126.663 57.4515 125.345 58.7702 123.72 58.7702H116.263C114.638 58.7702 113.319 57.4515 113.319 55.8267V51.7058Z" stroke="white" stroke-width="1.56988" stroke-miterlimit="10"/>
<path d="M113.476 43.8564H128.861C129.379 43.8564 129.803 44.2802 129.803 44.7983V48.2049C129.803 49.7042 128.586 50.9208 127.087 50.9208H113.704C113.06 50.9208 112.542 50.4028 112.542 49.7591V44.7983C112.542 44.2802 112.966 43.8564 113.484 43.8564H113.476Z" stroke="white" stroke-width="1.56988" stroke-miterlimit="10"/>
<path d="M130.588 83.8884H133.108C133.885 83.8884 134.513 84.5163 134.513 85.2934V87.2008C134.513 87.9779 133.885 88.6059 133.108 88.6059H130.588V83.8962V83.8884Z" stroke="white" stroke-width="1.56988" stroke-miterlimit="10"/>
<path d="M119.599 43.8564H128.806C129.355 43.8564 129.803 44.3038 129.803 44.8532V46.8784C129.803 47.3808 129.395 47.7889 128.892 47.7889H120.627C120.054 47.7889 119.591 47.3258 119.591 46.7528V43.8642L119.599 43.8564Z" stroke="white" stroke-width="1.56988" stroke-miterlimit="10"/>
<path d="M224.781 215.758C224.781 215.758 220.856 191.425 239.695 190.64C241.312 190.57 242.795 190.428 244.153 190.224C251.971 189.039 257.827 182.548 258.612 174.675C259.35 167.32 263.73 152.838 286.823 152.484C287.765 152.469 288.55 153.214 288.573 154.164C288.95 174.627 288.542 215.758 288.542 215.758H224.789H224.781Z" stroke="white" stroke-width="1.56988" stroke-miterlimit="10"/>
<path d="M229.49 215.758C229.49 215.758 227.92 209.479 242.834 209.479H268.714C268.714 209.479 279.727 209.479 279.727 189.07V161.935C279.727 161.935 278.942 152.963 287.686 152.72" stroke="white" stroke-width="1.56988" stroke-miterlimit="10"/>
<path d="M238.91 190.64L233.415 191.425V171.409C233.415 169.894 234.647 168.662 236.162 168.662C237.677 168.662 238.91 169.894 238.91 171.409V190.64Z" stroke="white" stroke-width="1.56988" stroke-miterlimit="10"/>
<path d="M202.18 204.145C204.029 202.297 204.049 199.32 202.225 197.496C200.401 195.672 197.424 195.692 195.575 197.541C193.727 199.389 193.707 202.366 195.531 204.19C197.355 206.014 200.332 205.994 202.18 204.145Z" stroke="white" stroke-width="1.56988" stroke-miterlimit="10"/>
<path d="M202.18 204.145C204.029 202.297 204.049 199.32 202.225 197.496C200.401 195.672 197.424 195.692 195.575 197.541C193.727 199.389 193.707 202.366 195.531 204.19C197.355 206.014 200.332 205.994 202.18 204.145Z" stroke="white" stroke-width="1.56988" stroke-miterlimit="10"/>
<path d="M197.277 186.017C190.668 186.747 185.377 192.171 184.804 198.796C184.6 201.198 184.985 203.505 185.864 205.554C186.609 207.344 187.732 208.945 189.113 210.264C189.396 210.546 189.694 210.805 190 211.049C192.426 213.011 195.518 214.188 198.878 214.188C202.238 214.188 205.33 213.011 207.756 211.049C208.062 210.805 208.36 210.546 208.643 210.264C210.024 208.945 211.147 207.344 211.892 205.554C212.615 203.866 213.007 202.006 213.007 200.06C213.007 191.731 205.793 185.083 197.277 186.017ZM199.953 205.429C196.523 206.19 193.525 203.191 194.286 199.761C194.671 198.034 196.068 196.637 197.795 196.253C201.225 195.491 204.224 198.49 203.462 201.92C203.077 203.647 201.68 205.044 199.953 205.429Z" stroke="white" stroke-width="1.56988" stroke-miterlimit="10"/>
<path d="M218.501 211.245V215.758H176.899V211.237C176.899 211.135 176.986 211.049 177.088 211.049H183.964V205.743C183.964 205.641 184.05 205.554 184.152 205.554H185.863C186.609 207.344 187.732 208.945 189.113 210.264C189.396 210.546 189.694 210.805 190 211.049C192.426 213.011 195.518 214.189 198.878 214.189C202.237 214.189 205.33 213.011 207.755 211.049C208.062 210.805 208.36 210.546 208.642 210.264C210.024 208.945 211.146 207.344 211.892 205.554H212.818C212.92 205.554 213.007 205.641 213.007 205.743V211.049H218.305C218.415 211.049 218.501 211.135 218.501 211.245Z" stroke="white" stroke-width="1.56988" stroke-miterlimit="10"/>
<path d="M69.7551 5.39428C70.8389 5.39428 71.7174 4.5157 71.7174 3.43193C71.7174 2.34815 70.8389 1.46957 69.7551 1.46957C68.6713 1.46957 67.7927 2.34815 67.7927 3.43193C67.7927 4.5157 68.6713 5.39428 69.7551 5.39428Z" stroke="white" stroke-width="1.56988" stroke-miterlimit="10"/>
<path d="M99.5827 6.17922C100.666 6.17922 101.545 5.30065 101.545 4.21687C101.545 3.13309 100.666 2.25452 99.5827 2.25452C98.4989 2.25452 97.6204 3.13309 97.6204 4.21687C97.6204 5.30065 98.4989 6.17922 99.5827 6.17922Z" stroke="white" stroke-width="1.56988" stroke-miterlimit="10"/>
<path d="M138.83 187.893C142.298 187.893 145.109 185.082 145.109 181.614C145.109 178.145 142.298 175.334 138.83 175.334C135.361 175.334 132.55 178.145 132.55 181.614C132.55 185.082 135.361 187.893 138.83 187.893Z" stroke="white" stroke-width="2.35482" stroke-miterlimit="10"/>
</svg>
