<svg width="536" height="93" viewBox="0 0 536 93" fill="none" xmlns="http://www.w3.org/2000/svg">
<path d="M533.839 52.6832V88.0055C533.839 89.7402 532.434 91.1453 530.699 91.1453H4.39636C2.66164 91.1453 1.25659 89.7402 1.25659 88.0055V51.1133C1.25659 50.2498 1.96304 49.5434 2.82648 49.5434H530.699C532.434 49.5434 533.839 50.9484 533.839 52.6832Z" stroke="white" stroke-width="2.35482" stroke-miterlimit="10"/>
<path d="M19.1534 20.893H195.53C197.264 20.893 198.669 22.2981 198.669 24.0328V46.0111C198.669 47.7459 197.264 49.1509 195.53 49.1509H20.7233C18.9885 49.1509 17.5835 47.7459 17.5835 46.0111V22.4629C17.5835 21.5995 18.2899 20.893 19.1534 20.893Z" stroke="white" stroke-width="2.35482" stroke-miterlimit="10"/>
<path d="M57.8118 16.9683H26.6497V20.893H57.8118V16.9683Z" stroke="white" stroke-width="1.56988" stroke-miterlimit="10"/>
<path d="M60.7945 10.2964H23.6668C22.7998 10.2964 22.0969 10.9992 22.0969 11.8662V15.3985C22.0969 16.2655 22.7998 16.9684 23.6668 16.9684H60.7945C61.6615 16.9684 62.3644 16.2655 62.3644 15.3985V11.8662C62.3644 10.9992 61.6615 10.2964 60.7945 10.2964Z" stroke="white" stroke-width="1.56988" stroke-miterlimit="10"/>
<path d="M30.4566 5.58667H54.0048C54.8683 5.58667 55.5747 6.29312 55.5747 7.15655V9.1189H28.8867V7.15655C28.8867 6.29312 29.5932 5.58667 30.4566 5.58667Z" stroke="white" stroke-width="1.56988" stroke-miterlimit="10"/>
<path d="M35.5587 1.66199H48.9026C49.7661 1.66199 50.4725 2.36843 50.4725 3.23187V5.19422H33.9888V3.23187C33.9888 2.36843 34.6952 1.66199 35.5587 1.66199Z" stroke="white" stroke-width="1.56988" stroke-miterlimit="10"/>
</svg>
