<svg width="127" height="149" viewBox="0 0 127 149" fill="none" xmlns="http://www.w3.org/2000/svg">
<path d="M124.627 1.75746L2.31749 24.3951C2.15265 24.4265 2.03491 24.5678 2.03491 24.7327V29.5287C2.03491 29.7406 2.23115 29.9054 2.44308 29.8662L124.753 8.01344C124.917 7.98204 125.035 7.84075 125.035 7.67592V2.10283C125.035 1.88305 124.839 1.72606 124.627 1.76531V1.75746Z" stroke="white" stroke-width="2.35482" stroke-miterlimit="10"/>
<path d="M110.796 124.522H14.2722" stroke="white" stroke-width="2.35482" stroke-miterlimit="10"/>
<path d="M110.796 135.818H14.2722" stroke="white" stroke-width="2.35482" stroke-miterlimit="10"/>
<path d="M110.796 123.737V103.407" stroke="white" stroke-width="2.35482" stroke-miterlimit="10"/>
<path d="M14.2722 103.407V123.737" stroke="white" stroke-width="2.35482" stroke-miterlimit="10"/>
<path d="M14.2722 113.211H110.796" stroke="white" stroke-width="2.35482" stroke-miterlimit="10"/>
<path d="M14.2722 102.238H110.796" stroke="white" stroke-width="2.35482" stroke-miterlimit="10"/>
<path d="M14.2722 147.592V139.507" stroke="white" stroke-width="2.35482" stroke-miterlimit="10"/>
<path d="M110.796 139.507V147.592" stroke="white" stroke-width="2.35482" stroke-miterlimit="10"/>
<path d="M110.796 111.657V92.1199" stroke="white" stroke-width="2.35482" stroke-miterlimit="10"/>
<path d="M14.2722 92.1199V111.657" stroke="white" stroke-width="2.35482" stroke-miterlimit="10"/>
<path d="M14.2722 136.618V128.376" stroke="white" stroke-width="2.35482" stroke-miterlimit="10"/>
<path d="M110.796 128.376V136.618" stroke="white" stroke-width="2.35482" stroke-miterlimit="10"/>
<path d="M110.796 92.1199V32.6999H14.28V92.1199M70.0893 46.4206C70.0893 45.5572 70.7958 44.8507 71.6592 44.8507H100.702C101.565 44.8507 102.272 45.5572 102.272 46.4206V85.6677C102.272 86.5311 101.565 87.2375 100.702 87.2375H71.6592C70.7958 87.2375 70.0893 86.5311 70.0893 85.6677V46.4206ZM26.1326 46.4206C26.1326 45.5572 26.8391 44.8507 27.7025 44.8507H59.1001C59.9636 44.8507 60.67 45.5572 60.67 46.4206V85.6677C60.67 86.5311 59.9636 87.2375 59.1001 87.2375H27.7025C26.8391 87.2375 26.1326 86.5311 26.1326 85.6677V46.4206Z" stroke="white" stroke-width="2.35482" stroke-miterlimit="10"/>
<path d="M76.2747 21.852L47.8049 26.8363L47.797 26.8285L14.2722 32.6998V27.8097C46.4469 22.0717 78.6138 16.326 110.789 10.5881V15.8079L76.2747 21.852ZM76.2747 21.852H75.9136" stroke="white" stroke-width="2.35482" stroke-miterlimit="10"/>
<path d="M110.796 21.852V15.8079L76.2747 21.852H110.796Z" stroke="white" stroke-width="2.35482" stroke-miterlimit="10"/>
<path d="M14.272 146.893V27.8096C11.7602 28.2571 9.24835 28.7045 6.74438 29.1519V146.893C9.29544 146.893 11.8544 146.893 14.4054 146.893C49.9711 146.893 85.5367 146.893 121.11 146.893V8.74344C117.672 9.35569 114.234 9.96795 110.796 10.588V146.893V139.507" stroke="white" stroke-width="2.35482" stroke-miterlimit="10"/>
<path d="M14.2722 32.6999H110.796V26.8364H47.8049L14.2722 32.6999Z" stroke="white" stroke-width="2.35482" stroke-miterlimit="10"/>
<path d="M47.8047 26.8363H110.796V21.852H76.2745L47.8047 26.8363Z" stroke="white" stroke-width="2.35482" stroke-miterlimit="10"/>
</svg>
