<svg width="44" height="209" viewBox="0 0 44 209" fill="none" xmlns="http://www.w3.org/2000/svg">
<path d="M40.6367 185.707V203.735C40.6367 205.074 39.5559 206.154 38.2169 206.154H5.41985C4.08087 206.154 3 205.074 3 203.735V185.707C3 184.376 4.08087 183.287 5.41985 183.287H38.2169C39.5559 183.287 40.6367 184.376 40.6367 185.707Z" stroke="white" stroke-width="4.8397" stroke-miterlimit="10"/>
<path d="M40.6367 45.6458V159.306C40.6367 162.162 38.3298 164.469 35.4744 164.469H8.16234C5.30692 164.469 3 162.162 3 159.306V45.6458C3 42.7581 5.33919 40.4189 8.21881 40.4189H35.4179C38.2976 40.4189 40.6367 42.7581 40.6367 45.6458Z" stroke="white" stroke-width="4.8397" stroke-miterlimit="10"/>
<path d="M34.1911 164.469H10.9121V183.287H34.1911V164.469Z" stroke="white" stroke-width="4.8397" stroke-miterlimit="10"/>
<path d="M41.1528 11.0662V16.9464C41.1528 21.3989 37.5392 25.0126 33.0867 25.0126H12.6228C8.16222 25.0126 4.55664 21.3989 4.55664 16.9464V11.0662C4.55664 6.60558 8.16222 3 12.6228 3H33.0867C37.5392 3 41.1528 6.60558 41.1528 11.0662Z" stroke="white" stroke-width="4.8397" stroke-miterlimit="10"/>
<path d="M34.4653 25.0126H12.6221V40.4189H34.4653V25.0126Z" stroke="white" stroke-width="4.8397" stroke-miterlimit="10"/>
</svg>
