<svg width="252" height="341" viewBox="0 0 252 341" fill="none" xmlns="http://www.w3.org/2000/svg">
<path d="M192.789 338.924H66.868C66.868 338.924 66.8115 338.899 66.8115 338.867V258.415C66.8115 258.415 66.8357 258.359 66.868 258.359H192.789C192.789 258.359 192.845 258.383 192.845 258.415V338.867C192.845 338.867 192.821 338.924 192.789 338.924Z" stroke="white" stroke-width="4.03308" stroke-miterlimit="10"/>
<path d="M67.6984 258.367C67.6984 258.367 66.2061 232.426 45.6777 218.762" stroke="white" stroke-width="5.64632" stroke-miterlimit="10"/>
<path d="M192.047 258.367C192.047 258.367 187.361 234.475 205.058 219.391" stroke="white" stroke-width="5.64632" stroke-miterlimit="10"/>
<path d="M125.735 248.47C193.519 248.47 248.47 193.519 248.47 125.735C248.47 57.9503 193.519 3 125.735 3C57.9503 3 3 57.9503 3 125.735C3 193.519 57.9503 248.47 125.735 248.47Z" stroke="white" stroke-width="5.64632" stroke-miterlimit="10"/>
<path d="M76.7568 258.367V338.924" stroke="white" stroke-width="2.41985" stroke-miterlimit="10"/>
<path d="M86.8711 258.367V338.924" stroke="white" stroke-width="2.41985" stroke-miterlimit="10"/>
<path d="M96.8174 338.924V258.367" stroke="white" stroke-width="2.41985" stroke-miterlimit="10"/>
<path d="M106.279 338.924V258.367" stroke="white" stroke-width="2.41985" stroke-miterlimit="10"/>
<path d="M116.257 338.924V258.367" stroke="white" stroke-width="2.41985" stroke-miterlimit="10"/>
<path d="M126.549 338.924V258.367" stroke="white" stroke-width="2.41985" stroke-miterlimit="10"/>
<path d="M135.89 338.924V258.367" stroke="white" stroke-width="2.41985" stroke-miterlimit="10"/>
<path d="M145.198 338.924V258.367" stroke="white" stroke-width="2.41985" stroke-miterlimit="10"/>
<path d="M154.522 338.924V258.367" stroke="white" stroke-width="2.41985" stroke-miterlimit="10"/>
<path d="M163.848 338.924V258.367" stroke="white" stroke-width="2.41985" stroke-miterlimit="10"/>
<path d="M173.107 338.924V258.367" stroke="white" stroke-width="2.41985" stroke-miterlimit="10"/>
<path d="M182.295 338.924V258.367" stroke="white" stroke-width="2.41985" stroke-miterlimit="10"/>
</svg>
